<svg xmlns="http://www.w3.org/2000/svg" width="64" height="64" viewBox="0 0 64 64" fill="none">
<rect width="64" height="64" rx="11.0545" fill="#565F70"/>
<rect x="2.90909" y="2.90909" width="58.1818" height="58.1818" rx="11.6364" fill="#263248"/>
<path d="M39.7576 14.5454H18.4242C16.2909 14.5454 14.5454 16.2909 14.5454 18.4242V45.5757C14.5454 47.7091 16.2909 49.4545 18.4242 49.4545H45.5757C47.7091 49.4545 49.4545 47.7091 49.4545 45.5757V24.2424L39.7576 14.5454ZM22.303 22.303H32V26.1818H22.303V22.303ZM41.697 41.697H22.303V37.8182H41.697V41.697ZM41.697 33.9394H22.303V30.0606H41.697V33.9394ZM37.8182 26.1818V18.4242L45.5757 26.1818H37.8182Z" fill="#FFFCFC"/>
</svg>