<svg xmlns="http://www.w3.org/2000/svg" width="360" height="110" viewBox="0 0 360 110" fill="none">
<rect width="110" height="110" rx="19" fill="#565F70"/>
<rect x="5" y="5" width="100" height="100" rx="20" fill="#263248"/>
<path d="M68.3333 25H31.6667C28 25 25 28 25 31.6667V78.3333C25 82 28 85 31.6667 85H78.3333C82 85 85 82 85 78.3333V41.6667L68.3333 25ZM38.3333 38.3333H55V45H38.3333V38.3333ZM71.6667 71.6667H38.3333V65H71.6667V71.6667ZM71.6667 58.3333H38.3333V51.6667H71.6667V58.3333ZM65 45V31.6667L78.3333 45H65Z" fill="#FFFCFC"/>
<mask id="path-4-outside-1_1_17" maskUnits="userSpaceOnUse" x="188" y="18" width="105" height="42" fill="black">
<rect fill="white" x="188" y="18" width="105" height="42"/>
<path d="M190.862 58V20.1818H217.232V27.6051H200.003V35.3608H215.884V42.8026H200.003V50.5767H217.232V58H190.862ZM255.142 20.1818V58H247.386L232.337 36.1733H232.097V58H222.956V20.1818H230.822L245.706 41.9716H246.02V20.1818H255.142ZM260.89 58V20.1818H276.512C279.343 20.1818 281.787 20.7358 283.843 21.8438C285.911 22.9394 287.505 24.4721 288.625 26.4418C289.746 28.3991 290.306 30.6766 290.306 33.2741C290.306 35.884 289.733 38.1676 288.588 40.125C287.456 42.0701 285.837 43.5781 283.732 44.6491C281.627 45.7202 279.128 46.2557 276.235 46.2557H266.596V39.054H274.536C275.915 39.054 277.066 38.8139 277.989 38.3338C278.925 37.8537 279.632 37.1828 280.113 36.321C280.593 35.447 280.833 34.4313 280.833 33.2741C280.833 32.1046 280.593 31.0952 280.113 30.2457C279.632 29.384 278.925 28.7192 277.989 28.2514C277.053 27.7836 275.902 27.5497 274.536 27.5497H270.03V58H260.89Z"/>
</mask>
<path d="M190.862 58V20.1818H217.232V27.6051H200.003V35.3608H215.884V42.8026H200.003V50.5767H217.232V58H190.862ZM255.142 20.1818V58H247.386L232.337 36.1733H232.097V58H222.956V20.1818H230.822L245.706 41.9716H246.02V20.1818H255.142ZM260.89 58V20.1818H276.512C279.343 20.1818 281.787 20.7358 283.843 21.8438C285.911 22.9394 287.505 24.4721 288.625 26.4418C289.746 28.3991 290.306 30.6766 290.306 33.2741C290.306 35.884 289.733 38.1676 288.588 40.125C287.456 42.0701 285.837 43.5781 283.732 44.6491C281.627 45.7202 279.128 46.2557 276.235 46.2557H266.596V39.054H274.536C275.915 39.054 277.066 38.8139 277.989 38.3338C278.925 37.8537 279.632 37.1828 280.113 36.321C280.593 35.447 280.833 34.4313 280.833 33.2741C280.833 32.1046 280.593 31.0952 280.113 30.2457C279.632 29.384 278.925 28.7192 277.989 28.2514C277.053 27.7836 275.902 27.5497 274.536 27.5497H270.03V58H260.89Z" fill="#FDFEFF"/>
<path d="M190.862 58H188.862V60H190.862V58ZM190.862 20.1818V18.1818H188.862V20.1818H190.862ZM217.232 20.1818H219.232V18.1818H217.232V20.1818ZM217.232 27.6051V29.6051H219.232V27.6051H217.232ZM200.003 27.6051V25.6051H198.003V27.6051H200.003ZM200.003 35.3608H198.003V37.3608H200.003V35.3608ZM215.884 35.3608H217.884V33.3608H215.884V35.3608ZM215.884 42.8026V44.8026H217.884V42.8026H215.884ZM200.003 42.8026V40.8026H198.003V42.8026H200.003ZM200.003 50.5767H198.003V52.5767H200.003V50.5767ZM217.232 50.5767H219.232V48.5767H217.232V50.5767ZM217.232 58V60H219.232V58H217.232ZM192.862 58V20.1818H188.862V58H192.862ZM190.862 22.1818H217.232V18.1818H190.862V22.1818ZM215.232 20.1818V27.6051H219.232V20.1818H215.232ZM217.232 25.6051H200.003V29.6051H217.232V25.6051ZM198.003 27.6051V35.3608H202.003V27.6051H198.003ZM200.003 37.3608H215.884V33.3608H200.003V37.3608ZM213.884 35.3608V42.8026H217.884V35.3608H213.884ZM215.884 40.8026H200.003V44.8026H215.884V40.8026ZM198.003 42.8026V50.5767H202.003V42.8026H198.003ZM200.003 52.5767H217.232V48.5767H200.003V52.5767ZM215.232 50.5767V58H219.232V50.5767H215.232ZM217.232 56H190.862V60H217.232V56ZM255.142 20.1818H257.142V18.1818H255.142V20.1818ZM255.142 58V60H257.142V58H255.142ZM247.386 58L245.74 59.1353L246.336 60H247.386V58ZM232.337 36.1733L233.983 35.038L233.387 34.1733H232.337V36.1733ZM232.097 36.1733V34.1733H230.097V36.1733H232.097ZM232.097 58V60H234.097V58H232.097ZM222.956 58H220.956V60H222.956V58ZM222.956 20.1818V18.1818H220.956V20.1818H222.956ZM230.822 20.1818L232.474 19.0538L231.878 18.1818H230.822V20.1818ZM245.706 41.9716L244.054 43.0997L244.65 43.9716H245.706V41.9716ZM246.02 41.9716V43.9716H248.02V41.9716H246.02ZM246.02 20.1818V18.1818H244.02V20.1818H246.02ZM253.142 20.1818V58H257.142V20.1818H253.142ZM255.142 56H247.386V60H255.142V56ZM249.033 56.8647L233.983 35.038L230.69 37.3086L245.74 59.1353L249.033 56.8647ZM232.337 34.1733H232.097V38.1733H232.337V34.1733ZM230.097 36.1733V58H234.097V36.1733H230.097ZM232.097 56H222.956V60H232.097V56ZM224.956 58V20.1818H220.956V58H224.956ZM222.956 22.1818H230.822V18.1818H222.956V22.1818ZM229.171 21.3099L244.054 43.0997L247.357 40.8435L232.474 19.0538L229.171 21.3099ZM245.706 43.9716H246.02V39.9716H245.706V43.9716ZM248.02 41.9716V20.1818H244.02V41.9716H248.02ZM246.02 22.1818H255.142V18.1818H246.02V22.1818ZM260.89 58H258.89V60H260.89V58ZM260.89 20.1818V18.1818H258.89V20.1818H260.89ZM283.843 21.8438L282.894 23.6044L282.9 23.6077L282.906 23.6111L283.843 21.8438ZM288.625 26.4418L286.887 27.4305L286.89 27.4352L288.625 26.4418ZM288.588 40.125L286.862 39.1152L286.86 39.1186L288.588 40.125ZM283.732 44.6491L284.639 46.4317L284.639 46.4317L283.732 44.6491ZM266.596 46.2557H264.596V48.2557H266.596V46.2557ZM266.596 39.054V37.054H264.596V39.054H266.596ZM277.989 38.3338L277.076 36.5544L277.066 36.5594L277.989 38.3338ZM280.113 36.321L281.86 37.2944L281.866 37.2839L280.113 36.321ZM280.113 30.2457L278.365 31.2192L278.371 31.2299L280.113 30.2457ZM277.989 28.2514L277.095 30.0403L277.095 30.0403L277.989 28.2514ZM270.03 27.5497V25.5497H268.03V27.5497H270.03ZM270.03 58V60H272.03V58H270.03ZM262.89 58V20.1818H258.89V58H262.89ZM260.89 22.1818H276.512V18.1818H260.89V22.1818ZM276.512 22.1818C279.082 22.1818 281.185 22.6836 282.894 23.6044L284.792 20.0831C282.388 18.788 279.605 18.1818 276.512 18.1818V22.1818ZM282.906 23.6111C284.65 24.5349 285.961 25.8026 286.887 27.4305L290.364 25.453C289.049 23.1415 287.171 21.3439 284.779 20.0764L282.906 23.6111ZM286.89 27.4352C287.812 29.0468 288.306 30.9716 288.306 33.2741H292.306C292.306 30.3817 291.679 27.7515 290.361 25.4483L286.89 27.4352ZM288.306 33.2741C288.306 35.5835 287.802 37.5079 286.862 39.1152L290.315 41.1348C291.664 38.8273 292.306 36.1845 292.306 33.2741H288.306ZM286.86 39.1186C285.931 40.7145 284.605 41.9609 282.825 42.8666L284.639 46.4317C287.069 45.1954 288.981 43.4256 290.317 41.1314L286.86 39.1186ZM282.825 42.8666C281.057 43.7661 278.882 44.2557 276.235 44.2557V48.2557C279.373 48.2557 282.197 47.6743 284.639 46.4317L282.825 42.8666ZM276.235 44.2557H266.596V48.2557H276.235V44.2557ZM268.596 46.2557V39.054H264.596V46.2557H268.596ZM266.596 41.054H274.536V37.054H266.596V41.054ZM274.536 41.054C276.136 41.054 277.626 40.7768 278.912 40.1082L277.066 36.5594C276.505 36.8511 275.694 37.054 274.536 37.054V41.054ZM278.902 40.1132C280.165 39.4652 281.174 38.5245 281.86 37.2944L278.365 35.3476C278.091 35.841 277.684 36.2422 277.076 36.5544L278.902 40.1132ZM281.866 37.2839C282.532 36.0705 282.833 34.7136 282.833 33.2741H278.833C278.833 34.1491 278.653 34.8234 278.36 35.3581L281.866 37.2839ZM282.833 33.2741C282.833 31.8282 282.534 30.4657 281.854 29.2616L278.371 31.2299C278.651 31.7246 278.833 32.381 278.833 33.2741H282.833ZM281.86 29.2723C281.172 28.0375 280.156 27.0988 278.883 26.4626L277.095 30.0403C277.693 30.3397 278.093 30.7305 278.365 31.2191L281.86 29.2723ZM278.883 26.4626C277.598 25.8201 276.121 25.5497 274.536 25.5497V29.5497C275.683 29.5497 276.508 29.7472 277.095 30.0403L278.883 26.4626ZM274.536 25.5497H270.03V29.5497H274.536V25.5497ZM268.03 27.5497V58H272.03V27.5497H268.03ZM270.03 56H260.89V60H270.03V56Z" fill="#020817" mask="url(#path-4-outside-1_1_17)"/>
<mask id="path-6-outside-2_1_17" maskUnits="userSpaceOnUse" x="121" y="75" width="238" height="28" fill="black">
<rect fill="white" x="121" y="75" width="238" height="28"/>
<path d="M122.202 96V77.8182H133.175V79.7713H124.403V85.9148H132.607V87.8679H124.403V94.0469H133.317V96H122.202ZM140.872 96.3196C140.008 96.3196 139.223 96.1568 138.519 95.8313C137.815 95.4999 137.256 95.0234 136.841 94.402C136.427 93.7746 136.22 93.017 136.22 92.1293C136.22 91.348 136.374 90.7147 136.681 90.2294C136.989 89.7382 137.401 89.3535 137.915 89.0753C138.43 88.7971 138.999 88.59 139.62 88.4538C140.247 88.3118 140.878 88.1993 141.511 88.1165C142.34 88.0099 143.011 87.93 143.526 87.8768C144.047 87.8176 144.426 87.7199 144.663 87.5838C144.905 87.4477 145.027 87.2109 145.027 86.8736V86.8026C145.027 85.9266 144.787 85.246 144.308 84.7607C143.834 84.2753 143.115 84.0327 142.15 84.0327C141.15 84.0327 140.366 84.2517 139.798 84.6896C139.229 85.1276 138.83 85.5952 138.599 86.0923L136.61 85.3821C136.966 84.5535 137.439 83.9084 138.031 83.4467C138.629 82.9792 139.28 82.6536 139.984 82.4702C140.694 82.2808 141.393 82.1861 142.079 82.1861C142.517 82.1861 143.02 82.2393 143.588 82.3459C144.163 82.4465 144.716 82.6566 145.249 82.9762C145.787 83.2958 146.234 83.7782 146.589 84.4233C146.944 85.0684 147.122 85.9325 147.122 87.0156V96H145.027V94.1534H144.92C144.778 94.4493 144.541 94.766 144.21 95.1033C143.878 95.4407 143.438 95.7277 142.887 95.9645C142.337 96.2012 141.665 96.3196 140.872 96.3196ZM141.191 94.4375C142.02 94.4375 142.718 94.2747 143.287 93.9492C143.861 93.6237 144.293 93.2035 144.583 92.6886C144.879 92.1737 145.027 91.6321 145.027 91.0639V89.1463C144.938 89.2528 144.743 89.3505 144.441 89.4393C144.145 89.5221 143.801 89.5961 143.411 89.6612C143.026 89.7204 142.65 89.7737 142.283 89.821C141.922 89.8625 141.629 89.898 141.404 89.9276C140.86 89.9986 140.351 90.114 139.877 90.2738C139.41 90.4277 139.031 90.6615 138.741 90.9751C138.457 91.2829 138.315 91.7031 138.315 92.2358C138.315 92.9638 138.584 93.5142 139.123 93.8871C139.667 94.254 140.357 94.4375 141.191 94.4375ZM160.605 85.4176L158.723 85.9503C158.605 85.6366 158.43 85.3318 158.199 85.0359C157.974 84.734 157.666 84.4854 157.276 84.2901C156.885 84.0948 156.385 83.9972 155.775 83.9972C154.941 83.9972 154.246 84.1895 153.689 84.5742C153.139 84.953 152.864 85.4354 152.864 86.0213C152.864 86.5421 153.053 86.9535 153.432 87.2553C153.811 87.5572 154.402 87.8087 155.207 88.0099L157.231 88.5071C158.451 88.803 159.359 89.2558 159.957 89.8654C160.555 90.4691 160.854 91.2474 160.854 92.2003C160.854 92.9815 160.629 93.6799 160.179 94.2955C159.735 94.911 159.114 95.3963 158.315 95.7514C157.516 96.1065 156.586 96.2841 155.527 96.2841C154.136 96.2841 152.985 95.9822 152.073 95.3786C151.162 94.7749 150.585 93.893 150.342 92.733L152.331 92.2358C152.52 92.9697 152.878 93.5201 153.405 93.8871C153.938 94.254 154.633 94.4375 155.491 94.4375C156.468 94.4375 157.243 94.2304 157.817 93.8161C158.397 93.3958 158.687 92.8928 158.687 92.3068C158.687 91.8333 158.522 91.4368 158.19 91.1172C157.859 90.7917 157.35 90.549 156.663 90.3892L154.391 89.8565C153.142 89.5606 152.224 89.1019 151.638 88.4805C151.058 87.8531 150.768 87.0689 150.768 86.1278C150.768 85.3584 150.984 84.6778 151.416 84.0859C151.854 83.4941 152.449 83.0295 153.201 82.6921C153.958 82.3548 154.817 82.1861 155.775 82.1861C157.125 82.1861 158.184 82.482 158.954 83.0739C159.729 83.6657 160.28 84.447 160.605 85.4176ZM165.357 101.114C165.002 101.114 164.685 101.084 164.407 101.025C164.129 100.972 163.936 100.918 163.83 100.865L164.363 99.0185C164.872 99.1487 165.321 99.196 165.712 99.1605C166.103 99.125 166.449 98.9504 166.751 98.6367C167.058 98.329 167.34 97.8288 167.594 97.1364L167.985 96.071L162.942 82.3636H165.215L168.979 93.2301H169.121L172.885 82.3636H175.158L169.37 97.9886C169.109 98.6929 168.787 99.2759 168.402 99.7376C168.017 100.205 167.57 100.551 167.061 100.776C166.558 101.001 165.99 101.114 165.357 101.114ZM199.656 77.8182V96H197.526L187.618 81.7244H187.441V96H185.239V77.8182H187.369L197.313 92.1293H197.49V77.8182H199.656ZM209.318 96.2841C208.087 96.2841 207.007 95.9911 206.077 95.4052C205.154 94.8192 204.432 93.9995 203.911 92.946C203.396 91.8925 203.139 90.6615 203.139 89.2528C203.139 87.8324 203.396 86.5924 203.911 85.533C204.432 84.4736 205.154 83.6509 206.077 83.065C207.007 82.479 208.087 82.1861 209.318 82.1861C210.549 82.1861 211.626 82.479 212.549 83.065C213.478 83.6509 214.201 84.4736 214.715 85.533C215.236 86.5924 215.497 87.8324 215.497 89.2528C215.497 90.6615 215.236 91.8925 214.715 92.946C214.201 93.9995 213.478 94.8192 212.549 95.4052C211.626 95.9911 210.549 96.2841 209.318 96.2841ZM209.318 94.402C210.253 94.402 211.022 94.1623 211.626 93.6829C212.23 93.2035 212.677 92.5732 212.967 91.7919C213.257 91.0107 213.402 90.1643 213.402 89.2528C213.402 88.3414 213.257 87.4921 212.967 86.7049C212.677 85.9177 212.23 85.2815 211.626 84.7962C211.022 84.3108 210.253 84.0682 209.318 84.0682C208.383 84.0682 207.613 84.3108 207.009 84.7962C206.406 85.2815 205.959 85.9177 205.669 86.7049C205.379 87.4921 205.234 88.3414 205.234 89.2528C205.234 90.1643 205.379 91.0107 205.669 91.7919C205.959 92.5732 206.406 93.2035 207.009 93.6829C207.613 94.1623 208.383 94.402 209.318 94.402ZM224.625 82.3636V84.1392H217.559V82.3636H224.625ZM219.618 79.0966H221.713V92.0938C221.713 92.6856 221.799 93.1295 221.971 93.4254C222.148 93.7154 222.373 93.9107 222.646 94.0114C222.924 94.1061 223.217 94.1534 223.525 94.1534C223.755 94.1534 223.945 94.1416 224.093 94.1179C224.241 94.0883 224.359 94.0646 224.448 94.0469L224.874 95.929C224.732 95.9822 224.534 96.0355 224.279 96.0888C224.025 96.148 223.702 96.1776 223.311 96.1776C222.72 96.1776 222.14 96.0503 221.571 95.7958C221.009 95.5413 220.542 95.1536 220.169 94.6328C219.802 94.112 219.618 93.455 219.618 92.6619V79.0966ZM233.348 96.2841C232.034 96.2841 230.901 95.9941 229.948 95.4141C229.001 94.8281 228.27 94.0114 227.755 92.9638C227.246 91.9103 226.991 90.6851 226.991 89.2884C226.991 87.8916 227.246 86.6605 227.755 85.5952C228.27 84.5239 228.986 83.6894 229.903 83.0916C230.827 82.4879 231.904 82.1861 233.135 82.1861C233.845 82.1861 234.546 82.3045 235.239 82.5412C235.931 82.7779 236.562 83.1626 237.13 83.6953C237.698 84.2221 238.151 84.9205 238.488 85.7905C238.825 86.6605 238.994 87.7318 238.994 89.0043V89.892H228.483V88.081H236.863C236.863 87.3116 236.71 86.625 236.402 86.0213C236.1 85.4176 235.668 84.9412 235.106 84.592C234.549 84.2428 233.892 84.0682 233.135 84.0682C232.3 84.0682 231.578 84.2753 230.969 84.6896C230.365 85.098 229.9 85.6307 229.575 86.2876C229.249 86.9446 229.086 87.6489 229.086 88.4006V89.608C229.086 90.6378 229.264 91.5108 229.619 92.2269C229.98 92.9371 230.48 93.4787 231.119 93.8516C231.759 94.2185 232.501 94.402 233.348 94.402C233.898 94.402 234.395 94.325 234.839 94.1712C235.289 94.0114 235.677 93.7746 236.002 93.4609C236.328 93.1413 236.579 92.7448 236.757 92.2713L238.781 92.8395C238.568 93.526 238.21 94.1297 237.707 94.6506C237.204 95.1655 236.582 95.5679 235.843 95.858C235.103 96.142 234.271 96.2841 233.348 96.2841ZM251.84 85.4176L249.958 85.9503C249.84 85.6366 249.665 85.3318 249.434 85.0359C249.21 84.734 248.902 84.4854 248.511 84.2901C248.121 84.0948 247.62 83.9972 247.011 83.9972C246.176 83.9972 245.481 84.1895 244.925 84.5742C244.374 84.953 244.099 85.4354 244.099 86.0213C244.099 86.5421 244.288 86.9535 244.667 87.2553C245.046 87.5572 245.638 87.8087 246.443 88.0099L248.467 88.5071C249.686 88.803 250.595 89.2558 251.192 89.8654C251.79 90.4691 252.089 91.2474 252.089 92.2003C252.089 92.9815 251.864 93.6799 251.414 94.2955C250.97 94.911 250.349 95.3963 249.55 95.7514C248.751 96.1065 247.822 96.2841 246.762 96.2841C245.371 96.2841 244.22 95.9822 243.309 95.3786C242.397 94.7749 241.82 93.893 241.578 92.733L243.566 92.2358C243.756 92.9697 244.114 93.5201 244.64 93.8871C245.173 94.254 245.869 94.4375 246.727 94.4375C247.703 94.4375 248.479 94.2304 249.053 93.8161C249.633 93.3958 249.923 92.8928 249.923 92.3068C249.923 91.8333 249.757 91.4368 249.426 91.1172C249.094 90.7917 248.585 90.549 247.899 90.3892L245.626 89.8565C244.377 89.5606 243.46 89.1019 242.874 88.4805C242.294 87.8531 242.004 87.0689 242.004 86.1278C242.004 85.3584 242.22 84.6778 242.652 84.0859C243.09 83.4941 243.685 83.0295 244.436 82.6921C245.194 82.3548 246.052 82.1861 247.011 82.1861C248.36 82.1861 249.42 82.482 250.189 83.0739C250.964 83.6657 251.515 84.447 251.84 85.4176ZM262.558 96V77.8182H268.702C270.128 77.8182 271.294 78.0756 272.199 78.5906C273.111 79.0996 273.786 79.7891 274.224 80.6591C274.662 81.5291 274.881 82.4998 274.881 83.571C274.881 84.6423 274.662 85.6159 274.224 86.4918C273.792 87.3678 273.123 88.0662 272.217 88.587C271.312 89.1019 270.152 89.3594 268.737 89.3594H264.334V87.4062H268.666C269.643 87.4062 270.427 87.2376 271.019 86.9002C271.611 86.5629 272.04 86.1071 272.306 85.533C272.578 84.953 272.714 84.299 272.714 83.571C272.714 82.843 272.578 82.192 272.306 81.6179C272.04 81.0438 271.608 80.594 271.01 80.2685C270.412 79.937 269.619 79.7713 268.631 79.7713H264.76V96H262.558ZM280.238 77.8182V96H278.143V77.8182H280.238ZM288.089 96.3196C287.224 96.3196 286.44 96.1568 285.736 95.8313C285.032 95.4999 284.472 95.0234 284.058 94.402C283.644 93.7746 283.437 93.017 283.437 92.1293C283.437 91.348 283.59 90.7147 283.898 90.2294C284.206 89.7382 284.617 89.3535 285.132 89.0753C285.647 88.7971 286.215 88.59 286.837 88.4538C287.464 88.3118 288.095 88.1993 288.728 88.1165C289.556 88.0099 290.228 87.93 290.743 87.8768C291.264 87.8176 291.643 87.7199 291.879 87.5838C292.122 87.4477 292.243 87.2109 292.243 86.8736V86.8026C292.243 85.9266 292.004 85.246 291.524 84.7607C291.051 84.2753 290.332 84.0327 289.367 84.0327C288.367 84.0327 287.583 84.2517 287.014 84.6896C286.446 85.1276 286.047 85.5952 285.816 86.0923L283.827 85.3821C284.182 84.5535 284.656 83.9084 285.248 83.4467C285.845 82.9792 286.497 82.6536 287.201 82.4702C287.911 82.2808 288.609 82.1861 289.296 82.1861C289.734 82.1861 290.237 82.2393 290.805 82.3459C291.379 82.4465 291.933 82.6566 292.465 82.9762C293.004 83.2958 293.451 83.7782 293.806 84.4233C294.161 85.0684 294.339 85.9325 294.339 87.0156V96H292.243V94.1534H292.137C291.995 94.4493 291.758 94.766 291.427 95.1033C291.095 95.4407 290.654 95.7277 290.104 95.9645C289.553 96.2012 288.882 96.3196 288.089 96.3196ZM288.408 94.4375C289.237 94.4375 289.935 94.2747 290.503 93.9492C291.077 93.6237 291.51 93.2035 291.8 92.6886C292.095 92.1737 292.243 91.6321 292.243 91.0639V89.1463C292.155 89.2528 291.959 89.3505 291.657 89.4393C291.362 89.5221 291.018 89.5961 290.628 89.6612C290.243 89.7204 289.867 89.7737 289.5 89.821C289.139 89.8625 288.846 89.898 288.621 89.9276C288.077 89.9986 287.568 90.114 287.094 90.2738C286.627 90.4277 286.248 90.6615 285.958 90.9751C285.674 91.2829 285.532 91.7031 285.532 92.2358C285.532 92.9638 285.801 93.5142 286.34 93.8871C286.884 94.254 287.574 94.4375 288.408 94.4375ZM304.093 82.3636V84.1392H297.026V82.3636H304.093ZM299.086 79.0966H301.181V92.0938C301.181 92.6856 301.267 93.1295 301.439 93.4254C301.616 93.7154 301.841 93.9107 302.113 94.0114C302.392 94.1061 302.685 94.1534 302.992 94.1534C303.223 94.1534 303.412 94.1416 303.56 94.1179C303.708 94.0883 303.827 94.0646 303.916 94.0469L304.342 95.929C304.2 95.9822 304.001 96.0355 303.747 96.0888C303.492 96.148 303.17 96.1776 302.779 96.1776C302.187 96.1776 301.607 96.0503 301.039 95.7958C300.477 95.5413 300.009 95.1536 299.636 94.6328C299.27 94.112 299.086 93.455 299.086 92.6619V79.0966ZM313.317 82.3636V84.1392H305.966V82.3636H313.317ZM308.168 96V80.4815C308.168 79.7003 308.352 79.0492 308.718 78.5284C309.085 78.0076 309.562 77.6169 310.148 77.3565C310.734 77.0961 311.352 76.9659 312.003 76.9659C312.518 76.9659 312.938 77.0073 313.264 77.0902C313.589 77.1731 313.832 77.25 313.992 77.321L313.388 79.1321C313.282 79.0966 313.134 79.0522 312.944 78.9989C312.761 78.9457 312.518 78.919 312.216 78.919C311.524 78.919 311.024 79.0936 310.716 79.4428C310.414 79.792 310.263 80.304 310.263 80.9787V96H308.168ZM321.232 96.2841C320.001 96.2841 318.921 95.9911 317.991 95.4052C317.068 94.8192 316.346 93.9995 315.825 92.946C315.31 91.8925 315.053 90.6615 315.053 89.2528C315.053 87.8324 315.31 86.5924 315.825 85.533C316.346 84.4736 317.068 83.6509 317.991 83.065C318.921 82.479 320.001 82.1861 321.232 82.1861C322.463 82.1861 323.54 82.479 324.463 83.065C325.393 83.6509 326.115 84.4736 326.63 85.533C327.15 86.5924 327.411 87.8324 327.411 89.2528C327.411 90.6615 327.15 91.8925 326.63 92.946C326.115 93.9995 325.393 94.8192 324.463 95.4052C323.54 95.9911 322.463 96.2841 321.232 96.2841ZM321.232 94.402C322.167 94.402 322.936 94.1623 323.54 93.6829C324.144 93.2035 324.591 92.5732 324.881 91.7919C325.171 91.0107 325.316 90.1643 325.316 89.2528C325.316 88.3414 325.171 87.4921 324.881 86.7049C324.591 85.9177 324.144 85.2815 323.54 84.7962C322.936 84.3108 322.167 84.0682 321.232 84.0682C320.297 84.0682 319.527 84.3108 318.924 84.7962C318.32 85.2815 317.873 85.9177 317.583 86.7049C317.293 87.4921 317.148 88.3414 317.148 89.2528C317.148 90.1643 317.293 91.0107 317.583 91.7919C317.873 92.5732 318.32 93.2035 318.924 93.6829C319.527 94.1623 320.297 94.402 321.232 94.402ZM330.609 96V82.3636H332.633V84.4233H332.775C333.024 83.7486 333.474 83.2011 334.125 82.7809C334.776 82.3607 335.51 82.1506 336.326 82.1506C336.48 82.1506 336.673 82.1535 336.903 82.1594C337.134 82.1654 337.309 82.1742 337.427 82.1861V84.3168C337.356 84.299 337.193 84.2724 336.939 84.2369C336.69 84.1954 336.427 84.1747 336.149 84.1747C335.486 84.1747 334.894 84.3138 334.373 84.592C333.858 84.8642 333.45 85.243 333.148 85.7283C332.852 86.2077 332.704 86.7552 332.704 87.3707V96H330.609ZM339.911 96V82.3636H341.935V84.4943H342.112C342.397 83.7663 342.855 83.2011 343.489 82.7987C344.122 82.3903 344.882 82.1861 345.77 82.1861C346.67 82.1861 347.418 82.3903 348.016 82.7987C348.62 83.2011 349.09 83.7663 349.428 84.4943H349.57C349.919 83.79 350.443 83.2307 351.141 82.8164C351.84 82.3962 352.677 82.1861 353.654 82.1861C354.873 82.1861 355.87 82.5678 356.646 83.3313C357.421 84.0889 357.809 85.2696 357.809 86.8736V96H355.713V86.8736C355.713 85.8674 355.438 85.1483 354.888 84.7163C354.337 84.2842 353.689 84.0682 352.943 84.0682C351.985 84.0682 351.242 84.3582 350.715 84.9382C350.188 85.5123 349.925 86.2403 349.925 87.1222V96H347.794V86.6605C347.794 85.8852 347.543 85.2608 347.04 84.7873C346.537 84.3079 345.889 84.0682 345.095 84.0682C344.551 84.0682 344.042 84.2132 343.568 84.5032C343.101 84.7932 342.722 85.1957 342.432 85.7106C342.148 86.2196 342.006 86.8085 342.006 87.4773V96H339.911Z"/>
</mask>
<path d="M122.202 96V77.8182H133.175V79.7713H124.403V85.9148H132.607V87.8679H124.403V94.0469H133.317V96H122.202ZM140.872 96.3196C140.008 96.3196 139.223 96.1568 138.519 95.8313C137.815 95.4999 137.256 95.0234 136.841 94.402C136.427 93.7746 136.22 93.017 136.22 92.1293C136.22 91.348 136.374 90.7147 136.681 90.2294C136.989 89.7382 137.401 89.3535 137.915 89.0753C138.43 88.7971 138.999 88.59 139.62 88.4538C140.247 88.3118 140.878 88.1993 141.511 88.1165C142.34 88.0099 143.011 87.93 143.526 87.8768C144.047 87.8176 144.426 87.7199 144.663 87.5838C144.905 87.4477 145.027 87.2109 145.027 86.8736V86.8026C145.027 85.9266 144.787 85.246 144.308 84.7607C143.834 84.2753 143.115 84.0327 142.15 84.0327C141.15 84.0327 140.366 84.2517 139.798 84.6896C139.229 85.1276 138.83 85.5952 138.599 86.0923L136.61 85.3821C136.966 84.5535 137.439 83.9084 138.031 83.4467C138.629 82.9792 139.28 82.6536 139.984 82.4702C140.694 82.2808 141.393 82.1861 142.079 82.1861C142.517 82.1861 143.02 82.2393 143.588 82.3459C144.163 82.4465 144.716 82.6566 145.249 82.9762C145.787 83.2958 146.234 83.7782 146.589 84.4233C146.944 85.0684 147.122 85.9325 147.122 87.0156V96H145.027V94.1534H144.92C144.778 94.4493 144.541 94.766 144.21 95.1033C143.878 95.4407 143.438 95.7277 142.887 95.9645C142.337 96.2012 141.665 96.3196 140.872 96.3196ZM141.191 94.4375C142.02 94.4375 142.718 94.2747 143.287 93.9492C143.861 93.6237 144.293 93.2035 144.583 92.6886C144.879 92.1737 145.027 91.6321 145.027 91.0639V89.1463C144.938 89.2528 144.743 89.3505 144.441 89.4393C144.145 89.5221 143.801 89.5961 143.411 89.6612C143.026 89.7204 142.65 89.7737 142.283 89.821C141.922 89.8625 141.629 89.898 141.404 89.9276C140.86 89.9986 140.351 90.114 139.877 90.2738C139.41 90.4277 139.031 90.6615 138.741 90.9751C138.457 91.2829 138.315 91.7031 138.315 92.2358C138.315 92.9638 138.584 93.5142 139.123 93.8871C139.667 94.254 140.357 94.4375 141.191 94.4375ZM160.605 85.4176L158.723 85.9503C158.605 85.6366 158.43 85.3318 158.199 85.0359C157.974 84.734 157.666 84.4854 157.276 84.2901C156.885 84.0948 156.385 83.9972 155.775 83.9972C154.941 83.9972 154.246 84.1895 153.689 84.5742C153.139 84.953 152.864 85.4354 152.864 86.0213C152.864 86.5421 153.053 86.9535 153.432 87.2553C153.811 87.5572 154.402 87.8087 155.207 88.0099L157.231 88.5071C158.451 88.803 159.359 89.2558 159.957 89.8654C160.555 90.4691 160.854 91.2474 160.854 92.2003C160.854 92.9815 160.629 93.6799 160.179 94.2955C159.735 94.911 159.114 95.3963 158.315 95.7514C157.516 96.1065 156.586 96.2841 155.527 96.2841C154.136 96.2841 152.985 95.9822 152.073 95.3786C151.162 94.7749 150.585 93.893 150.342 92.733L152.331 92.2358C152.52 92.9697 152.878 93.5201 153.405 93.8871C153.938 94.254 154.633 94.4375 155.491 94.4375C156.468 94.4375 157.243 94.2304 157.817 93.8161C158.397 93.3958 158.687 92.8928 158.687 92.3068C158.687 91.8333 158.522 91.4368 158.19 91.1172C157.859 90.7917 157.35 90.549 156.663 90.3892L154.391 89.8565C153.142 89.5606 152.224 89.1019 151.638 88.4805C151.058 87.8531 150.768 87.0689 150.768 86.1278C150.768 85.3584 150.984 84.6778 151.416 84.0859C151.854 83.4941 152.449 83.0295 153.201 82.6921C153.958 82.3548 154.817 82.1861 155.775 82.1861C157.125 82.1861 158.184 82.482 158.954 83.0739C159.729 83.6657 160.28 84.447 160.605 85.4176ZM165.357 101.114C165.002 101.114 164.685 101.084 164.407 101.025C164.129 100.972 163.936 100.918 163.83 100.865L164.363 99.0185C164.872 99.1487 165.321 99.196 165.712 99.1605C166.103 99.125 166.449 98.9504 166.751 98.6367C167.058 98.329 167.34 97.8288 167.594 97.1364L167.985 96.071L162.942 82.3636H165.215L168.979 93.2301H169.121L172.885 82.3636H175.158L169.37 97.9886C169.109 98.6929 168.787 99.2759 168.402 99.7376C168.017 100.205 167.57 100.551 167.061 100.776C166.558 101.001 165.99 101.114 165.357 101.114ZM199.656 77.8182V96H197.526L187.618 81.7244H187.441V96H185.239V77.8182H187.369L197.313 92.1293H197.49V77.8182H199.656ZM209.318 96.2841C208.087 96.2841 207.007 95.9911 206.077 95.4052C205.154 94.8192 204.432 93.9995 203.911 92.946C203.396 91.8925 203.139 90.6615 203.139 89.2528C203.139 87.8324 203.396 86.5924 203.911 85.533C204.432 84.4736 205.154 83.6509 206.077 83.065C207.007 82.479 208.087 82.1861 209.318 82.1861C210.549 82.1861 211.626 82.479 212.549 83.065C213.478 83.6509 214.201 84.4736 214.715 85.533C215.236 86.5924 215.497 87.8324 215.497 89.2528C215.497 90.6615 215.236 91.8925 214.715 92.946C214.201 93.9995 213.478 94.8192 212.549 95.4052C211.626 95.9911 210.549 96.2841 209.318 96.2841ZM209.318 94.402C210.253 94.402 211.022 94.1623 211.626 93.6829C212.23 93.2035 212.677 92.5732 212.967 91.7919C213.257 91.0107 213.402 90.1643 213.402 89.2528C213.402 88.3414 213.257 87.4921 212.967 86.7049C212.677 85.9177 212.23 85.2815 211.626 84.7962C211.022 84.3108 210.253 84.0682 209.318 84.0682C208.383 84.0682 207.613 84.3108 207.009 84.7962C206.406 85.2815 205.959 85.9177 205.669 86.7049C205.379 87.4921 205.234 88.3414 205.234 89.2528C205.234 90.1643 205.379 91.0107 205.669 91.7919C205.959 92.5732 206.406 93.2035 207.009 93.6829C207.613 94.1623 208.383 94.402 209.318 94.402ZM224.625 82.3636V84.1392H217.559V82.3636H224.625ZM219.618 79.0966H221.713V92.0938C221.713 92.6856 221.799 93.1295 221.971 93.4254C222.148 93.7154 222.373 93.9107 222.646 94.0114C222.924 94.1061 223.217 94.1534 223.525 94.1534C223.755 94.1534 223.945 94.1416 224.093 94.1179C224.241 94.0883 224.359 94.0646 224.448 94.0469L224.874 95.929C224.732 95.9822 224.534 96.0355 224.279 96.0888C224.025 96.148 223.702 96.1776 223.311 96.1776C222.72 96.1776 222.14 96.0503 221.571 95.7958C221.009 95.5413 220.542 95.1536 220.169 94.6328C219.802 94.112 219.618 93.455 219.618 92.6619V79.0966ZM233.348 96.2841C232.034 96.2841 230.901 95.9941 229.948 95.4141C229.001 94.8281 228.27 94.0114 227.755 92.9638C227.246 91.9103 226.991 90.6851 226.991 89.2884C226.991 87.8916 227.246 86.6605 227.755 85.5952C228.27 84.5239 228.986 83.6894 229.903 83.0916C230.827 82.4879 231.904 82.1861 233.135 82.1861C233.845 82.1861 234.546 82.3045 235.239 82.5412C235.931 82.7779 236.562 83.1626 237.13 83.6953C237.698 84.2221 238.151 84.9205 238.488 85.7905C238.825 86.6605 238.994 87.7318 238.994 89.0043V89.892H228.483V88.081H236.863C236.863 87.3116 236.71 86.625 236.402 86.0213C236.1 85.4176 235.668 84.9412 235.106 84.592C234.549 84.2428 233.892 84.0682 233.135 84.0682C232.3 84.0682 231.578 84.2753 230.969 84.6896C230.365 85.098 229.9 85.6307 229.575 86.2876C229.249 86.9446 229.086 87.6489 229.086 88.4006V89.608C229.086 90.6378 229.264 91.5108 229.619 92.2269C229.98 92.9371 230.48 93.4787 231.119 93.8516C231.759 94.2185 232.501 94.402 233.348 94.402C233.898 94.402 234.395 94.325 234.839 94.1712C235.289 94.0114 235.677 93.7746 236.002 93.4609C236.328 93.1413 236.579 92.7448 236.757 92.2713L238.781 92.8395C238.568 93.526 238.21 94.1297 237.707 94.6506C237.204 95.1655 236.582 95.5679 235.843 95.858C235.103 96.142 234.271 96.2841 233.348 96.2841ZM251.84 85.4176L249.958 85.9503C249.84 85.6366 249.665 85.3318 249.434 85.0359C249.21 84.734 248.902 84.4854 248.511 84.2901C248.121 84.0948 247.62 83.9972 247.011 83.9972C246.176 83.9972 245.481 84.1895 244.925 84.5742C244.374 84.953 244.099 85.4354 244.099 86.0213C244.099 86.5421 244.288 86.9535 244.667 87.2553C245.046 87.5572 245.638 87.8087 246.443 88.0099L248.467 88.5071C249.686 88.803 250.595 89.2558 251.192 89.8654C251.79 90.4691 252.089 91.2474 252.089 92.2003C252.089 92.9815 251.864 93.6799 251.414 94.2955C250.97 94.911 250.349 95.3963 249.55 95.7514C248.751 96.1065 247.822 96.2841 246.762 96.2841C245.371 96.2841 244.22 95.9822 243.309 95.3786C242.397 94.7749 241.82 93.893 241.578 92.733L243.566 92.2358C243.756 92.9697 244.114 93.5201 244.64 93.8871C245.173 94.254 245.869 94.4375 246.727 94.4375C247.703 94.4375 248.479 94.2304 249.053 93.8161C249.633 93.3958 249.923 92.8928 249.923 92.3068C249.923 91.8333 249.757 91.4368 249.426 91.1172C249.094 90.7917 248.585 90.549 247.899 90.3892L245.626 89.8565C244.377 89.5606 243.46 89.1019 242.874 88.4805C242.294 87.8531 242.004 87.0689 242.004 86.1278C242.004 85.3584 242.22 84.6778 242.652 84.0859C243.09 83.4941 243.685 83.0295 244.436 82.6921C245.194 82.3548 246.052 82.1861 247.011 82.1861C248.36 82.1861 249.42 82.482 250.189 83.0739C250.964 83.6657 251.515 84.447 251.84 85.4176ZM262.558 96V77.8182H268.702C270.128 77.8182 271.294 78.0756 272.199 78.5906C273.111 79.0996 273.786 79.7891 274.224 80.6591C274.662 81.5291 274.881 82.4998 274.881 83.571C274.881 84.6423 274.662 85.6159 274.224 86.4918C273.792 87.3678 273.123 88.0662 272.217 88.587C271.312 89.1019 270.152 89.3594 268.737 89.3594H264.334V87.4062H268.666C269.643 87.4062 270.427 87.2376 271.019 86.9002C271.611 86.5629 272.04 86.1071 272.306 85.533C272.578 84.953 272.714 84.299 272.714 83.571C272.714 82.843 272.578 82.192 272.306 81.6179C272.04 81.0438 271.608 80.594 271.01 80.2685C270.412 79.937 269.619 79.7713 268.631 79.7713H264.76V96H262.558ZM280.238 77.8182V96H278.143V77.8182H280.238ZM288.089 96.3196C287.224 96.3196 286.44 96.1568 285.736 95.8313C285.032 95.4999 284.472 95.0234 284.058 94.402C283.644 93.7746 283.437 93.017 283.437 92.1293C283.437 91.348 283.59 90.7147 283.898 90.2294C284.206 89.7382 284.617 89.3535 285.132 89.0753C285.647 88.7971 286.215 88.59 286.837 88.4538C287.464 88.3118 288.095 88.1993 288.728 88.1165C289.556 88.0099 290.228 87.93 290.743 87.8768C291.264 87.8176 291.643 87.7199 291.879 87.5838C292.122 87.4477 292.243 87.2109 292.243 86.8736V86.8026C292.243 85.9266 292.004 85.246 291.524 84.7607C291.051 84.2753 290.332 84.0327 289.367 84.0327C288.367 84.0327 287.583 84.2517 287.014 84.6896C286.446 85.1276 286.047 85.5952 285.816 86.0923L283.827 85.3821C284.182 84.5535 284.656 83.9084 285.248 83.4467C285.845 82.9792 286.497 82.6536 287.201 82.4702C287.911 82.2808 288.609 82.1861 289.296 82.1861C289.734 82.1861 290.237 82.2393 290.805 82.3459C291.379 82.4465 291.933 82.6566 292.465 82.9762C293.004 83.2958 293.451 83.7782 293.806 84.4233C294.161 85.0684 294.339 85.9325 294.339 87.0156V96H292.243V94.1534H292.137C291.995 94.4493 291.758 94.766 291.427 95.1033C291.095 95.4407 290.654 95.7277 290.104 95.9645C289.553 96.2012 288.882 96.3196 288.089 96.3196ZM288.408 94.4375C289.237 94.4375 289.935 94.2747 290.503 93.9492C291.077 93.6237 291.51 93.2035 291.8 92.6886C292.095 92.1737 292.243 91.6321 292.243 91.0639V89.1463C292.155 89.2528 291.959 89.3505 291.657 89.4393C291.362 89.5221 291.018 89.5961 290.628 89.6612C290.243 89.7204 289.867 89.7737 289.5 89.821C289.139 89.8625 288.846 89.898 288.621 89.9276C288.077 89.9986 287.568 90.114 287.094 90.2738C286.627 90.4277 286.248 90.6615 285.958 90.9751C285.674 91.2829 285.532 91.7031 285.532 92.2358C285.532 92.9638 285.801 93.5142 286.34 93.8871C286.884 94.254 287.574 94.4375 288.408 94.4375ZM304.093 82.3636V84.1392H297.026V82.3636H304.093ZM299.086 79.0966H301.181V92.0938C301.181 92.6856 301.267 93.1295 301.439 93.4254C301.616 93.7154 301.841 93.9107 302.113 94.0114C302.392 94.1061 302.685 94.1534 302.992 94.1534C303.223 94.1534 303.412 94.1416 303.56 94.1179C303.708 94.0883 303.827 94.0646 303.916 94.0469L304.342 95.929C304.2 95.9822 304.001 96.0355 303.747 96.0888C303.492 96.148 303.17 96.1776 302.779 96.1776C302.187 96.1776 301.607 96.0503 301.039 95.7958C300.477 95.5413 300.009 95.1536 299.636 94.6328C299.27 94.112 299.086 93.455 299.086 92.6619V79.0966ZM313.317 82.3636V84.1392H305.966V82.3636H313.317ZM308.168 96V80.4815C308.168 79.7003 308.352 79.0492 308.718 78.5284C309.085 78.0076 309.562 77.6169 310.148 77.3565C310.734 77.0961 311.352 76.9659 312.003 76.9659C312.518 76.9659 312.938 77.0073 313.264 77.0902C313.589 77.1731 313.832 77.25 313.992 77.321L313.388 79.1321C313.282 79.0966 313.134 79.0522 312.944 78.9989C312.761 78.9457 312.518 78.919 312.216 78.919C311.524 78.919 311.024 79.0936 310.716 79.4428C310.414 79.792 310.263 80.304 310.263 80.9787V96H308.168ZM321.232 96.2841C320.001 96.2841 318.921 95.9911 317.991 95.4052C317.068 94.8192 316.346 93.9995 315.825 92.946C315.31 91.8925 315.053 90.6615 315.053 89.2528C315.053 87.8324 315.31 86.5924 315.825 85.533C316.346 84.4736 317.068 83.6509 317.991 83.065C318.921 82.479 320.001 82.1861 321.232 82.1861C322.463 82.1861 323.54 82.479 324.463 83.065C325.393 83.6509 326.115 84.4736 326.63 85.533C327.15 86.5924 327.411 87.8324 327.411 89.2528C327.411 90.6615 327.15 91.8925 326.63 92.946C326.115 93.9995 325.393 94.8192 324.463 95.4052C323.54 95.9911 322.463 96.2841 321.232 96.2841ZM321.232 94.402C322.167 94.402 322.936 94.1623 323.54 93.6829C324.144 93.2035 324.591 92.5732 324.881 91.7919C325.171 91.0107 325.316 90.1643 325.316 89.2528C325.316 88.3414 325.171 87.4921 324.881 86.7049C324.591 85.9177 324.144 85.2815 323.54 84.7962C322.936 84.3108 322.167 84.0682 321.232 84.0682C320.297 84.0682 319.527 84.3108 318.924 84.7962C318.32 85.2815 317.873 85.9177 317.583 86.7049C317.293 87.4921 317.148 88.3414 317.148 89.2528C317.148 90.1643 317.293 91.0107 317.583 91.7919C317.873 92.5732 318.32 93.2035 318.924 93.6829C319.527 94.1623 320.297 94.402 321.232 94.402ZM330.609 96V82.3636H332.633V84.4233H332.775C333.024 83.7486 333.474 83.2011 334.125 82.7809C334.776 82.3607 335.51 82.1506 336.326 82.1506C336.48 82.1506 336.673 82.1535 336.903 82.1594C337.134 82.1654 337.309 82.1742 337.427 82.1861V84.3168C337.356 84.299 337.193 84.2724 336.939 84.2369C336.69 84.1954 336.427 84.1747 336.149 84.1747C335.486 84.1747 334.894 84.3138 334.373 84.592C333.858 84.8642 333.45 85.243 333.148 85.7283C332.852 86.2077 332.704 86.7552 332.704 87.3707V96H330.609ZM339.911 96V82.3636H341.935V84.4943H342.112C342.397 83.7663 342.855 83.2011 343.489 82.7987C344.122 82.3903 344.882 82.1861 345.77 82.1861C346.67 82.1861 347.418 82.3903 348.016 82.7987C348.62 83.2011 349.09 83.7663 349.428 84.4943H349.57C349.919 83.79 350.443 83.2307 351.141 82.8164C351.84 82.3962 352.677 82.1861 353.654 82.1861C354.873 82.1861 355.87 82.5678 356.646 83.3313C357.421 84.0889 357.809 85.2696 357.809 86.8736V96H355.713V86.8736C355.713 85.8674 355.438 85.1483 354.888 84.7163C354.337 84.2842 353.689 84.0682 352.943 84.0682C351.985 84.0682 351.242 84.3582 350.715 84.9382C350.188 85.5123 349.925 86.2403 349.925 87.1222V96H347.794V86.6605C347.794 85.8852 347.543 85.2608 347.04 84.7873C346.537 84.3079 345.889 84.0682 345.095 84.0682C344.551 84.0682 344.042 84.2132 343.568 84.5032C343.101 84.7932 342.722 85.1957 342.432 85.7106C342.148 86.2196 342.006 86.8085 342.006 87.4773V96H339.911Z" fill="white" fill-opacity="0.78"/>
<path d="M122.202 96H121.202V97H122.202V96ZM122.202 77.8182V76.8182H121.202V77.8182H122.202ZM133.175 77.8182H134.175V76.8182H133.175V77.8182ZM133.175 79.7713V80.7713H134.175V79.7713H133.175ZM124.403 79.7713V78.7713H123.403V79.7713H124.403ZM124.403 85.9148H123.403V86.9148H124.403V85.9148ZM132.607 85.9148H133.607V84.9148H132.607V85.9148ZM132.607 87.8679V88.8679H133.607V87.8679H132.607ZM124.403 87.8679V86.8679H123.403V87.8679H124.403ZM124.403 94.0469H123.403V95.0469H124.403V94.0469ZM133.317 94.0469H134.317V93.0469H133.317V94.0469ZM133.317 96V97H134.317V96H133.317ZM123.202 96V77.8182H121.202V96H123.202ZM122.202 78.8182H133.175V76.8182H122.202V78.8182ZM132.175 77.8182V79.7713H134.175V77.8182H132.175ZM133.175 78.7713H124.403V80.7713H133.175V78.7713ZM123.403 79.7713V85.9148H125.403V79.7713H123.403ZM124.403 86.9148H132.607V84.9148H124.403V86.9148ZM131.607 85.9148V87.8679H133.607V85.9148H131.607ZM132.607 86.8679H124.403V88.8679H132.607V86.8679ZM123.403 87.8679V94.0469H125.403V87.8679H123.403ZM124.403 95.0469H133.317V93.0469H124.403V95.0469ZM132.317 94.0469V96H134.317V94.0469H132.317ZM133.317 95H122.202V97H133.317V95ZM138.519 95.8313L138.093 96.7362L138.1 96.7391L138.519 95.8313ZM136.841 94.402L136.007 94.9531L136.009 94.9567L136.841 94.402ZM136.681 90.2294L137.526 90.765L137.529 90.7603L136.681 90.2294ZM139.62 88.4538L139.834 89.4307L139.841 89.4291L139.62 88.4538ZM141.511 88.1165L141.383 87.1246L141.381 87.1249L141.511 88.1165ZM143.526 87.8768L143.629 88.8715L143.639 88.8704L143.526 87.8768ZM144.663 87.5838L144.173 86.7116L144.164 86.7169L144.663 87.5838ZM144.308 84.7607L143.592 85.459L143.596 85.4634L144.308 84.7607ZM139.798 84.6896L140.408 85.4816L140.408 85.4816L139.798 84.6896ZM138.599 86.0923L138.263 87.0341L139.122 87.3409L139.506 86.5134L138.599 86.0923ZM136.61 85.3821L135.691 84.9882L135.272 85.966L136.274 86.3238L136.61 85.3821ZM138.031 83.4467L138.646 84.2352L138.647 84.2344L138.031 83.4467ZM139.984 82.4702L140.236 83.4379L140.242 83.4364L139.984 82.4702ZM143.588 82.3459L143.404 83.3288L143.416 83.3309L143.588 82.3459ZM145.249 82.9762L144.734 83.8337L144.738 83.8362L145.249 82.9762ZM146.589 84.4233L145.713 84.9055L145.713 84.9055L146.589 84.4233ZM147.122 96V97H148.122V96H147.122ZM145.027 96H144.027V97H145.027V96ZM145.027 94.1534H146.027V93.1534H145.027V94.1534ZM144.92 94.1534V93.1534H144.291L144.019 93.7207L144.92 94.1534ZM144.21 95.1033L144.923 95.8042L144.923 95.8042L144.21 95.1033ZM142.887 95.9645L142.492 95.0459L142.887 95.9645ZM143.287 93.9492L142.793 93.0793L142.789 93.0815L143.287 93.9492ZM144.583 92.6886L143.716 92.1903L143.711 92.1978L144.583 92.6886ZM145.027 89.1463H146.027V86.3842L144.258 88.5061L145.027 89.1463ZM144.441 89.4393L144.71 90.4023L144.723 90.3986L144.441 89.4393ZM143.411 89.6612L143.563 90.6497L143.575 90.6476L143.411 89.6612ZM142.283 89.821L142.397 90.8146L142.411 90.8128L142.283 89.821ZM141.404 89.9276L141.534 90.9192L141.535 90.919L141.404 89.9276ZM139.877 90.2738L140.19 91.2237L140.197 91.2213L139.877 90.2738ZM138.741 90.9751L138.007 90.2963L138.006 90.2969L138.741 90.9751ZM139.123 93.8871L138.554 94.7093L138.564 94.7163L139.123 93.8871ZM140.872 95.3196C140.136 95.3196 139.497 95.1817 138.939 94.9236L138.1 96.7391C138.95 97.132 139.879 97.3196 140.872 97.3196V95.3196ZM138.945 94.9265C138.398 94.6692 137.982 94.3107 137.673 93.8473L136.009 94.9567C136.529 95.7362 137.232 96.3306 138.093 96.7361L138.945 94.9265ZM137.676 93.8509C137.388 93.4148 137.22 92.8572 137.22 92.1293H135.22C135.22 93.1769 135.466 94.1344 136.007 94.9531L137.676 93.8509ZM137.22 92.1293C137.22 91.4716 137.35 91.0422 137.526 90.7649L135.837 89.6939C135.397 90.3872 135.22 91.2244 135.22 92.1293H137.22ZM137.529 90.7603C137.744 90.4171 138.026 90.1519 138.391 89.9551L137.44 88.1955C136.775 88.555 136.235 89.0593 135.834 89.6985L137.529 90.7603ZM138.391 89.9551C138.817 89.725 139.296 89.5485 139.834 89.4307L139.406 87.477C138.701 87.6314 138.044 87.8692 137.44 88.1955L138.391 89.9551ZM139.841 89.4291C140.438 89.2939 141.038 89.1869 141.641 89.108L141.381 87.1249C140.717 87.2118 140.056 87.3297 139.399 87.4785L139.841 89.4291ZM141.639 89.1083C142.463 89.0023 143.126 88.9235 143.629 88.8715L143.423 86.8821C142.897 86.9366 142.216 87.0176 141.383 87.1246L141.639 89.1083ZM143.639 88.8704C144.194 88.8073 144.741 88.6922 145.161 88.4507L144.164 86.7169C144.111 86.7476 143.9 86.8278 143.413 86.8832L143.639 88.8704ZM145.152 88.4559C145.782 88.1025 146.027 87.4817 146.027 86.8736H144.027C144.027 86.9251 144.017 86.9036 144.046 86.8481C144.06 86.8201 144.08 86.7908 144.106 86.7643C144.132 86.738 144.156 86.7212 144.173 86.7117L145.152 88.4559ZM146.027 86.8736V86.8026H144.027V86.8736H146.027ZM146.027 86.8026C146.027 85.7416 145.732 84.7794 145.019 84.0579L143.596 85.4634C143.842 85.7125 144.027 86.1116 144.027 86.8026H146.027ZM145.023 84.0623C144.294 83.3148 143.269 83.0327 142.15 83.0327V85.0327C142.961 85.0327 143.374 85.2359 143.592 85.459L145.023 84.0623ZM142.15 83.0327C141.014 83.0327 139.988 83.2806 139.187 83.8976L140.408 85.4816C140.744 85.2227 141.285 85.0327 142.15 85.0327V83.0327ZM139.187 83.8976C138.53 84.4044 138.008 84.9905 137.692 85.6712L139.506 86.5134C139.652 86.1999 139.929 85.8508 140.408 85.4816L139.187 83.8976ZM138.935 85.1506L136.947 84.4404L136.274 86.3238L138.263 87.0341L138.935 85.1506ZM137.53 85.776C137.832 85.0714 138.211 84.5741 138.646 84.2352L137.416 82.6582C136.667 83.2426 136.1 84.0356 135.691 84.9882L137.53 85.776ZM138.647 84.2344C139.142 83.8474 139.67 83.5854 140.236 83.4379L139.732 81.5025C138.89 81.7219 138.116 82.1109 137.415 82.6591L138.647 84.2344ZM140.242 83.4364C140.874 83.2679 141.486 83.1861 142.079 83.1861V81.1861C141.3 81.1861 140.515 81.2937 139.726 81.5039L140.242 83.4364ZM142.079 83.1861C142.439 83.1861 142.879 83.2302 143.404 83.3288L143.773 81.363C143.162 81.2485 142.595 81.1861 142.079 81.1861V83.1861ZM143.416 83.3309C143.861 83.4089 144.3 83.573 144.734 83.8337L145.763 82.1187C145.132 81.7402 144.464 81.484 143.761 81.3609L143.416 83.3309ZM144.738 83.8362C145.098 84.0499 145.429 84.389 145.713 84.9055L147.465 83.9411C147.039 83.1674 146.476 82.5418 145.759 82.1162L144.738 83.8362ZM145.713 84.9055C145.958 85.3495 146.122 86.0274 146.122 87.0156H148.122C148.122 85.8377 147.931 84.7873 147.465 83.9411L145.713 84.9055ZM146.122 87.0156V96H148.122V87.0156H146.122ZM147.122 95H145.027V97H147.122V95ZM146.027 96V94.1534H144.027V96H146.027ZM145.027 93.1534H144.92V95.1534H145.027V93.1534ZM144.019 93.7207C143.94 93.8843 143.782 94.1121 143.497 94.4025L144.923 95.8042C145.301 95.4199 145.616 95.0144 145.822 94.5861L144.019 93.7207ZM143.497 94.4025C143.277 94.6262 142.954 94.8472 142.492 95.0459L143.282 96.8831C143.921 96.6083 144.48 96.2552 144.923 95.8042L143.497 94.4025ZM142.492 95.0459C142.1 95.2146 141.571 95.3196 140.872 95.3196V97.3196C141.759 97.3196 142.574 97.1879 143.282 96.8831L142.492 95.0459ZM141.191 95.4375C142.149 95.4375 143.029 95.2492 143.784 94.8169L142.789 93.0815C142.408 93.3002 141.891 93.4375 141.191 93.4375V95.4375ZM143.78 94.8191C144.493 94.4147 145.065 93.8706 145.454 93.1793L143.711 92.1978C143.521 92.5364 143.228 92.8327 142.793 93.0793L143.78 94.8191ZM145.45 93.1868C145.829 92.5275 146.027 91.815 146.027 91.0639H144.027C144.027 91.4492 143.929 91.8198 143.716 92.1903L145.45 93.1868ZM146.027 91.0639V89.1463H144.027V91.0639H146.027ZM144.258 88.5061C144.302 88.4536 144.34 88.4241 144.356 88.4125C144.373 88.4005 144.379 88.3988 144.366 88.405C144.355 88.4109 144.332 88.4212 144.296 88.4347C144.26 88.4481 144.215 88.4633 144.159 88.4799L144.723 90.3986C144.908 90.3442 145.093 90.278 145.261 90.1939C145.419 90.1149 145.626 89.9891 145.795 89.7865L144.258 88.5061ZM144.171 88.4763C143.918 88.5472 143.611 88.614 143.246 88.6748L143.575 90.6476C143.992 90.5782 144.372 90.4971 144.71 90.4022L144.171 88.4763ZM143.259 88.6728C142.882 88.7309 142.514 88.783 142.155 88.8292L142.411 90.8128C142.787 90.7644 143.171 90.7099 143.563 90.6496L143.259 88.6728ZM142.169 88.8275C141.806 88.8693 141.507 88.9055 141.274 88.9361L141.535 90.919C141.752 90.8904 142.039 90.8556 142.397 90.8145L142.169 88.8275ZM141.275 88.936C140.672 89.0146 140.099 89.1437 139.558 89.3263L140.197 91.2213C140.603 91.0843 141.048 90.9826 141.534 90.9192L141.275 88.936ZM139.565 89.3239C138.961 89.5227 138.429 89.8401 138.007 90.2963L139.475 91.654C139.634 91.4828 139.859 91.3326 140.19 91.2237L139.565 89.3239ZM138.006 90.2969C137.509 90.8356 137.315 91.5226 137.315 92.2358H139.315C139.315 91.8836 139.405 91.7303 139.476 91.6534L138.006 90.2969ZM137.315 92.2358C137.315 93.2493 137.712 94.1266 138.554 94.7093L139.692 93.0649C139.457 92.9018 139.315 92.6783 139.315 92.2358H137.315ZM138.564 94.7163C139.313 95.2213 140.212 95.4375 141.191 95.4375V93.4375C140.502 93.4375 140.021 93.2868 139.682 93.0578L138.564 94.7163ZM160.605 85.4176L160.877 86.3798L161.887 86.0942L161.553 85.0997L160.605 85.4176ZM158.723 85.9503L157.787 86.3033L158.112 87.1626L158.995 86.9125L158.723 85.9503ZM158.199 85.0359L157.397 85.6333L157.404 85.6422L157.411 85.6509L158.199 85.0359ZM157.276 84.2901L157.723 83.3957L157.723 83.3957L157.276 84.2901ZM153.689 84.5742L154.256 85.398L154.258 85.3967L153.689 84.5742ZM153.432 87.2553L152.809 88.0374L152.809 88.0374L153.432 87.2553ZM155.207 88.0099L154.965 88.9801L154.969 88.9811L155.207 88.0099ZM157.231 88.5071L156.993 89.4782L156.996 89.4789L157.231 88.5071ZM159.957 89.8654L159.243 90.5656L159.246 90.569L159.957 89.8654ZM160.179 94.2955L159.371 93.7054L159.368 93.7105L160.179 94.2955ZM152.073 95.3786L152.626 94.5448L152.626 94.5448L152.073 95.3786ZM150.342 92.733L150.1 91.7628L149.166 91.9961L149.363 92.9377L150.342 92.733ZM152.331 92.2358L153.299 91.9859L153.051 91.0249L152.088 91.2657L152.331 92.2358ZM153.405 93.8871L152.833 94.7076L152.838 94.7106L153.405 93.8871ZM157.817 93.8161L158.403 94.627L158.404 94.6259L157.817 93.8161ZM158.19 91.1172L157.49 91.8307L157.496 91.837L158.19 91.1172ZM156.663 90.3892L156.435 91.3628L156.437 91.3632L156.663 90.3892ZM154.391 89.8565L154.16 90.8296L154.162 90.8302L154.391 89.8565ZM151.638 88.4805L150.904 89.1594L150.911 89.1665L151.638 88.4805ZM151.416 84.0859L150.613 83.4911L150.609 83.4963L151.416 84.0859ZM153.201 82.6921L152.794 81.7786L152.791 81.7798L153.201 82.6921ZM158.954 83.0739L158.344 83.8665L158.347 83.8687L158.954 83.0739ZM160.333 84.4554L158.451 84.9881L158.995 86.9125L160.877 86.3798L160.333 84.4554ZM159.659 85.5972C159.501 85.1788 159.273 84.7868 158.988 84.4208L157.411 85.6509C157.587 85.8768 157.708 86.0944 157.787 86.3033L159.659 85.5972ZM159.001 84.4384C158.669 83.9925 158.231 83.6497 157.723 83.3957L156.829 85.1846C157.102 85.3212 157.28 85.4755 157.397 85.6333L159.001 84.4384ZM157.723 83.3957C157.15 83.1091 156.483 82.9972 155.775 82.9972V84.9972C156.288 84.9972 156.621 85.0806 156.829 85.1846L157.723 83.3957ZM155.775 82.9972C154.786 82.9972 153.879 83.2269 153.12 83.7517L154.258 85.3967C154.612 85.1522 155.096 84.9972 155.775 84.9972V82.9972ZM153.122 83.7504C152.345 84.2854 151.864 85.056 151.864 86.0213H153.864C153.864 85.8147 153.933 85.6206 154.256 85.398L153.122 83.7504ZM151.864 86.0213C151.864 86.8202 152.172 87.53 152.809 88.0374L154.055 86.4733C153.934 86.377 153.864 86.264 153.864 86.0213H151.864ZM152.809 88.0374C153.352 88.4706 154.106 88.7655 154.965 88.9801L155.45 87.0398C154.698 86.852 154.269 86.6438 154.055 86.4733L152.809 88.0374ZM154.969 88.9811L156.993 89.4782L157.47 87.536L155.446 87.0388L154.969 88.9811ZM156.996 89.4789C158.113 89.7502 158.824 90.138 159.243 90.5656L160.671 89.1653C159.895 88.3736 158.788 87.8559 157.467 87.5353L156.996 89.4789ZM159.246 90.569C159.636 90.962 159.854 91.476 159.854 92.2003H161.854C161.854 91.0188 161.474 89.9762 160.668 89.1618L159.246 90.569ZM159.854 92.2003C159.854 92.775 159.693 93.2657 159.371 93.7054L160.986 94.8855C161.565 94.0942 161.854 93.188 161.854 92.2003H159.854ZM159.368 93.7105C159.042 94.1619 158.571 94.5433 157.908 94.8376L158.721 96.6652C159.656 96.2493 160.428 95.6601 160.99 94.8804L159.368 93.7105ZM157.908 94.8376C157.261 95.1252 156.475 95.2841 155.527 95.2841V97.2841C156.697 97.2841 157.77 97.0879 158.721 96.6652L157.908 94.8376ZM155.527 95.2841C154.279 95.2841 153.334 95.014 152.626 94.5448L151.521 96.2123C152.636 96.9505 153.993 97.2841 155.527 97.2841V95.2841ZM152.626 94.5448C151.953 94.0994 151.515 93.4545 151.321 92.5282L149.363 92.9377C149.655 94.3315 150.371 95.4503 151.521 96.2123L152.626 94.5448ZM150.585 93.7031L152.573 93.2059L152.088 91.2657L150.1 91.7628L150.585 93.7031ZM151.363 92.4857C151.6 93.4071 152.076 94.1801 152.833 94.7076L153.977 93.0665C153.68 92.8602 153.44 92.5323 153.299 91.9859L151.363 92.4857ZM152.838 94.7106C153.584 95.2246 154.496 95.4375 155.491 95.4375V93.4375C154.771 93.4375 154.292 93.2834 153.972 93.0636L152.838 94.7106ZM155.491 95.4375C156.6 95.4375 157.604 95.203 158.403 94.627L157.232 93.0052C156.882 93.2577 156.336 93.4375 155.491 93.4375V95.4375ZM158.404 94.6259C159.179 94.0646 159.687 93.2859 159.687 92.3068H157.687C157.687 92.4996 157.616 92.7271 157.231 93.0062L158.404 94.6259ZM159.687 92.3068C159.687 91.5705 159.417 90.9113 158.884 90.3973L157.496 91.837C157.626 91.9622 157.687 92.0962 157.687 92.3068H159.687ZM158.891 90.4037C158.377 89.8993 157.67 89.5967 156.89 89.4152L156.437 91.3632C157.03 91.5013 157.34 91.684 157.49 91.8306L158.891 90.4037ZM156.891 89.4156L154.619 88.8829L154.162 90.8302L156.435 91.3628L156.891 89.4156ZM154.621 88.8835C153.473 88.6114 152.766 88.219 152.366 87.7945L150.911 89.1665C151.682 89.9848 152.81 90.5098 154.16 90.8296L154.621 88.8835ZM152.373 87.8016C151.981 87.3784 151.768 86.8449 151.768 86.1278H149.768C149.768 87.2929 150.135 88.3278 150.904 89.1593L152.373 87.8016ZM151.768 86.1278C151.768 85.5591 151.924 85.0873 152.224 84.6755L150.609 83.4963C150.045 84.2683 149.768 85.1578 149.768 86.1278H151.768ZM152.22 84.6808C152.545 84.2426 152.996 83.8801 153.61 83.6044L152.791 81.7798C151.902 82.1789 151.164 82.7455 150.613 83.4911L152.22 84.6808ZM153.608 83.6056C154.219 83.3335 154.935 83.1861 155.775 83.1861V81.1861C154.698 81.1861 153.698 81.376 152.794 81.7786L153.608 83.6056ZM155.775 83.1861C156.989 83.1861 157.806 83.4528 158.344 83.8665L159.563 82.2812C158.562 81.5112 157.261 81.1861 155.775 81.1861V83.1861ZM158.347 83.8687C158.955 84.3331 159.392 84.9445 159.657 85.7356L161.553 85.0997C161.167 83.9494 160.503 82.9983 159.561 82.279L158.347 83.8687ZM164.407 101.025L164.615 100.047L164.605 100.045L164.595 100.043L164.407 101.025ZM163.83 100.865L162.869 100.588L162.638 101.387L163.383 101.759L163.83 100.865ZM164.363 99.0185L164.61 98.0497L163.671 97.8093L163.402 98.7413L164.363 99.0185ZM165.712 99.1605L165.621 98.1646L165.621 98.1646L165.712 99.1605ZM166.751 98.6367L166.044 97.9296L166.037 97.9364L166.03 97.9433L166.751 98.6367ZM167.594 97.1364L168.533 97.4813L168.533 97.4806L167.594 97.1364ZM167.985 96.071L168.924 96.4153L169.05 96.0705L168.923 95.7258L167.985 96.071ZM162.942 82.3636V81.3636H161.509L162.004 82.7089L162.942 82.3636ZM165.215 82.3636L166.16 82.0363L165.927 81.3636H165.215V82.3636ZM168.979 93.2301L168.034 93.5574L168.267 94.2301H168.979V93.2301ZM169.121 93.2301V94.2301H169.833L170.066 93.5574L169.121 93.2301ZM172.885 82.3636V81.3636H172.173L171.94 82.0363L172.885 82.3636ZM175.158 82.3636L176.096 82.711L176.595 81.3636H175.158V82.3636ZM169.37 97.9886L168.432 97.6413L168.432 97.6418L169.37 97.9886ZM168.402 99.7376L167.634 99.0974L167.63 99.1022L168.402 99.7376ZM167.061 100.776L166.657 99.8616L166.653 99.8634L167.061 100.776ZM165.357 100.114C165.055 100.114 164.81 100.088 164.615 100.047L164.199 102.003C164.56 102.08 164.948 102.114 165.357 102.114V100.114ZM164.595 100.043C164.472 100.019 164.383 99.9984 164.321 99.9812C164.251 99.962 164.247 99.9556 164.277 99.9706L163.383 101.759C163.625 101.881 163.94 101.954 164.219 102.007L164.595 100.043ZM164.791 101.142L165.323 99.2956L163.402 98.7413L162.869 100.588L164.791 101.142ZM164.115 99.9873C164.699 100.137 165.267 100.205 165.803 100.156L165.621 98.1646C165.376 98.187 165.044 98.1606 164.61 98.0497L164.115 99.9873ZM165.803 100.156C166.46 100.097 167.022 99.7967 167.471 99.3301L166.03 97.9433C165.875 98.1041 165.746 98.1533 165.621 98.1646L165.803 100.156ZM167.458 99.3438C167.916 98.8859 168.258 98.2279 168.533 97.4813L166.655 96.7914C166.421 97.4298 166.201 97.772 166.044 97.9296L167.458 99.3438ZM168.533 97.4806L168.924 96.4153L167.046 95.7268L166.655 96.7921L168.533 97.4806ZM168.923 95.7258L163.881 82.0184L162.004 82.7089L167.046 96.4163L168.923 95.7258ZM162.942 83.3636H165.215V81.3636H162.942V83.3636ZM164.27 82.691L168.034 93.5574L169.924 92.9028L166.16 82.0363L164.27 82.691ZM168.979 94.2301H169.121V92.2301H168.979V94.2301ZM170.066 93.5574L173.83 82.691L171.94 82.0363L168.176 92.9028L170.066 93.5574ZM172.885 83.3636H175.158V81.3636H172.885V83.3636ZM174.22 82.0163L168.432 97.6413L170.307 98.336L176.096 82.711L174.22 82.0163ZM168.432 97.6418C168.201 98.265 167.93 98.7419 167.634 99.0974L169.17 100.378C169.643 99.81 170.017 99.1209 170.308 98.3354L168.432 97.6418ZM167.63 99.1022C167.335 99.46 167.011 99.7052 166.657 99.8616L167.466 101.691C168.13 101.398 168.699 100.95 169.174 100.373L167.63 99.1022ZM166.653 99.8634C166.296 100.023 165.87 100.114 165.357 100.114V102.114C166.11 102.114 166.82 101.979 167.47 101.689L166.653 99.8634ZM199.656 77.8182H200.656V76.8182H199.656V77.8182ZM199.656 96V97H200.656V96H199.656ZM197.526 96L196.704 96.5702L197.003 97H197.526V96ZM187.618 81.7244L188.44 81.1543L188.141 80.7244H187.618V81.7244ZM187.441 81.7244V80.7244H186.441V81.7244H187.441ZM187.441 96V97H188.441V96H187.441ZM185.239 96H184.239V97H185.239V96ZM185.239 77.8182V76.8182H184.239V77.8182H185.239ZM187.369 77.8182L188.191 77.2476L187.892 76.8182H187.369V77.8182ZM197.313 92.1293L196.491 92.6998L196.79 93.1293H197.313V92.1293ZM197.49 92.1293V93.1293H198.49V92.1293H197.49ZM197.49 77.8182V76.8182H196.49V77.8182H197.49ZM198.656 77.8182V96H200.656V77.8182H198.656ZM199.656 95H197.526V97H199.656V95ZM198.347 95.4298L188.44 81.1543L186.797 82.2946L196.704 96.5702L198.347 95.4298ZM187.618 80.7244H187.441V82.7244H187.618V80.7244ZM186.441 81.7244V96H188.441V81.7244H186.441ZM187.441 95H185.239V97H187.441V95ZM186.239 96V77.8182H184.239V96H186.239ZM185.239 78.8182H187.369V76.8182H185.239V78.8182ZM186.548 78.3888L196.491 92.6998L198.134 91.5587L188.191 77.2476L186.548 78.3888ZM197.313 93.1293H197.49V91.1293H197.313V93.1293ZM198.49 92.1293V77.8182H196.49V92.1293H198.49ZM197.49 78.8182H199.656V76.8182H197.49V78.8182ZM206.077 95.4052L205.541 96.2495L205.544 96.2511L206.077 95.4052ZM203.911 92.946L203.013 93.3851L203.015 93.3892L203.911 92.946ZM203.911 85.533L203.014 85.0918L203.012 85.0959L203.911 85.533ZM206.077 83.065L205.544 82.2191L205.542 82.2207L206.077 83.065ZM212.549 83.065L212.013 83.9093L212.016 83.9109L212.549 83.065ZM214.715 85.533L213.816 85.9702L213.818 85.9742L214.715 85.533ZM214.715 92.946L213.819 92.5028L213.817 92.5069L214.715 92.946ZM212.549 95.4052L212.016 94.5593L212.013 94.5609L212.549 95.4052ZM211.626 93.6829L211.004 92.8998L211.004 92.8998L211.626 93.6829ZM212.967 91.7919L213.904 92.1399L213.904 92.1399L212.967 91.7919ZM212.967 86.7049L213.905 86.3592L213.905 86.3592L212.967 86.7049ZM211.626 84.7962L212.253 84.0168L212.253 84.0168L211.626 84.7962ZM207.009 84.7962L206.383 84.0168L206.383 84.0168L207.009 84.7962ZM205.669 86.7049L204.731 86.3592L204.731 86.3592L205.669 86.7049ZM205.669 91.7919L204.731 92.1399L204.731 92.1399L205.669 91.7919ZM207.009 93.6829L207.631 92.8998L207.631 92.8998L207.009 93.6829ZM209.318 95.2841C208.252 95.2841 207.361 95.0327 206.611 94.5593L205.544 96.2511C206.652 96.9495 207.921 97.2841 209.318 97.2841V95.2841ZM206.613 94.5609C205.856 94.0804 205.254 93.4049 204.808 92.5028L203.015 93.3892C203.61 94.5942 204.452 95.5581 205.542 96.2495L206.613 94.5609ZM204.81 92.5069C204.374 91.6149 204.139 90.5395 204.139 89.2528H202.139C202.139 90.7834 202.419 92.1701 203.013 93.3851L204.81 92.5069ZM204.139 89.2528C204.139 87.9531 204.374 86.8682 204.811 85.9702L203.012 85.0959C202.418 86.3167 202.139 87.7117 202.139 89.2528H204.139ZM204.809 85.9742C205.255 85.0662 205.858 84.3889 206.613 83.9093L205.542 82.2207C204.451 82.913 203.609 83.881 203.014 85.0918L204.809 85.9742ZM206.611 83.9109C207.361 83.4374 208.252 83.1861 209.318 83.1861V81.1861C207.921 81.1861 206.652 81.5207 205.544 82.2191L206.611 83.9109ZM209.318 83.1861C210.384 83.1861 211.27 83.4375 212.013 83.9093L213.085 82.2207C211.982 81.5206 210.714 81.1861 209.318 81.1861V83.1861ZM212.016 83.9109C212.776 84.3901 213.377 85.0658 213.816 85.9702L215.615 85.0959C215.025 83.8814 214.181 82.9117 213.083 82.2191L212.016 83.9109ZM213.818 85.9742C214.259 86.8712 214.497 87.9547 214.497 89.2528H216.497C216.497 87.7101 216.214 86.3137 215.613 85.0918L213.818 85.9742ZM214.497 89.2528C214.497 90.5379 214.26 91.6119 213.819 92.5028L215.612 93.3892C216.213 92.1732 216.497 90.785 216.497 89.2528H214.497ZM213.817 92.5069C213.378 93.4053 212.777 94.0792 212.016 94.5593L213.083 96.2511C214.18 95.5593 215.023 94.5938 215.614 93.3851L213.817 92.5069ZM212.013 94.5609C211.27 95.0327 210.384 95.2841 209.318 95.2841V97.2841C210.714 97.2841 211.982 96.9495 213.085 96.2495L212.013 94.5609ZM209.318 95.402C210.429 95.402 211.432 95.1139 212.248 94.466L211.004 92.8998C210.613 93.2107 210.077 93.402 209.318 93.402V95.402ZM212.248 94.466C213.006 93.8639 213.556 93.0779 213.904 92.1399L212.029 91.4439C211.797 92.0684 211.453 92.543 211.004 92.8998L212.248 94.466ZM213.904 92.1399C214.239 91.2373 214.402 90.272 214.402 89.2528H212.402C212.402 90.0566 212.274 90.784 212.029 91.4439L213.904 92.1399ZM214.402 89.2528C214.402 88.2336 214.239 87.2663 213.905 86.3592L212.028 87.0506C212.274 87.7179 212.402 88.4491 212.402 89.2528H214.402ZM213.905 86.3592C213.558 85.4165 213.009 84.6251 212.253 84.0168L210.999 85.5755C211.45 85.9379 211.795 86.419 212.028 87.0506L213.905 86.3592ZM212.253 84.0168C211.437 83.3608 210.432 83.0682 209.318 83.0682V85.0682C210.074 85.0682 210.608 85.2609 210.999 85.5755L212.253 84.0168ZM209.318 83.0682C208.204 83.0682 207.199 83.3608 206.383 84.0168L207.636 85.5755C208.027 85.2609 208.562 85.0682 209.318 85.0682V83.0682ZM206.383 84.0168C205.626 84.6251 205.078 85.4165 204.731 86.3592L206.607 87.0506C206.84 86.419 207.185 85.9379 207.636 85.5755L206.383 84.0168ZM204.731 86.3592C204.396 87.2663 204.234 88.2336 204.234 89.2528H206.234C206.234 88.4491 206.361 87.7179 206.607 87.0506L204.731 86.3592ZM204.234 89.2528C204.234 90.272 204.396 91.2373 204.731 92.1399L206.606 91.4439C206.361 90.784 206.234 90.0566 206.234 89.2528H204.234ZM204.731 92.1399C205.08 93.0779 205.629 93.8639 206.388 94.466L207.631 92.8998C207.182 92.543 206.838 92.0684 206.606 91.4439L204.731 92.1399ZM206.388 94.466C207.203 95.1139 208.206 95.402 209.318 95.402V93.402C208.559 93.402 208.023 93.2107 207.631 92.8998L206.388 94.466ZM224.625 82.3636H225.625V81.3636H224.625V82.3636ZM224.625 84.1392V85.1392H225.625V84.1392H224.625ZM217.559 84.1392H216.559V85.1392H217.559V84.1392ZM217.559 82.3636V81.3636H216.559V82.3636H217.559ZM219.618 79.0966V78.0966H218.618V79.0966H219.618ZM221.713 79.0966H222.713V78.0966H221.713V79.0966ZM221.971 93.4254L221.106 93.9271L221.112 93.9374L221.118 93.9476L221.971 93.4254ZM222.646 94.0114L222.299 94.9494L222.311 94.9538L222.323 94.958L222.646 94.0114ZM224.093 94.1179L224.251 95.1053L224.27 95.1023L224.289 95.0985L224.093 94.1179ZM224.448 94.0469L225.423 93.826L225.208 92.8751L224.252 93.0663L224.448 94.0469ZM224.874 95.929L225.225 96.8653L226.042 96.559L225.849 95.7082L224.874 95.929ZM224.279 96.0888L224.074 95.11L224.063 95.1123L224.053 95.1148L224.279 96.0888ZM221.571 95.7958L221.159 96.7068L221.163 96.7084L221.571 95.7958ZM220.169 94.6328L219.351 95.2088L219.356 95.2149L220.169 94.6328ZM223.625 82.3636V84.1392H225.625V82.3636H223.625ZM224.625 83.1392H217.559V85.1392H224.625V83.1392ZM218.559 84.1392V82.3636H216.559V84.1392H218.559ZM217.559 83.3636H224.625V81.3636H217.559V83.3636ZM219.618 80.0966H221.713V78.0966H219.618V80.0966ZM220.713 79.0966V92.0938H222.713V79.0966H220.713ZM220.713 92.0938C220.713 92.7495 220.803 93.4045 221.106 93.9271L222.836 92.9237C222.796 92.8545 222.713 92.6217 222.713 92.0938H220.713ZM221.118 93.9476C221.392 94.3949 221.781 94.758 222.299 94.9494L222.992 93.0734C222.965 93.0635 222.905 93.036 222.824 92.9033L221.118 93.9476ZM222.323 94.958C222.71 95.0897 223.112 95.1534 223.525 95.1534V93.1534C223.321 93.1534 223.137 93.1224 222.968 93.0647L222.323 94.958ZM223.525 95.1534C223.783 95.1534 224.031 95.1406 224.251 95.1053L223.935 93.1305C223.859 93.1426 223.727 93.1534 223.525 93.1534V95.1534ZM224.289 95.0985C224.437 95.0689 224.555 95.0452 224.644 95.0275L224.252 93.0663C224.163 93.084 224.045 93.1077 223.897 93.1373L224.289 95.0985ZM223.472 94.2677L223.899 96.1498L225.849 95.7082L225.423 93.826L223.472 94.2677ZM224.523 94.9926C224.45 95.0199 224.309 95.0609 224.074 95.11L224.484 97.0676C224.758 97.0101 225.014 96.9446 225.225 96.8653L224.523 94.9926ZM224.053 95.1148C223.899 95.1505 223.659 95.1776 223.311 95.1776V97.1776C223.745 97.1776 224.15 97.1455 224.506 97.0628L224.053 95.1148ZM223.311 95.1776C222.868 95.1776 222.427 95.0831 221.98 94.8832L221.163 96.7084C221.853 97.0175 222.571 97.1776 223.311 97.1776V95.1776ZM221.984 94.8848C221.588 94.7056 221.256 94.4342 220.982 94.0507L219.356 95.2149C219.827 95.8731 220.43 96.377 221.159 96.7068L221.984 94.8848ZM220.986 94.0569C220.764 93.7419 220.618 93.2997 220.618 92.6619H218.618C218.618 93.6103 218.839 94.482 219.351 95.2088L220.986 94.0569ZM220.618 92.6619V79.0966H218.618V92.6619H220.618ZM229.948 95.4141L229.421 96.2645L229.428 96.2683L229.948 95.4141ZM227.755 92.9638L226.854 93.3988L226.857 93.4049L227.755 92.9638ZM227.755 85.5952L226.854 85.162L226.852 85.1641L227.755 85.5952ZM229.903 83.0916L230.449 83.9294L230.45 83.9286L229.903 83.0916ZM235.239 82.5412L235.562 81.595L235.562 81.595L235.239 82.5412ZM237.13 83.6953L236.446 84.4249L236.45 84.4287L237.13 83.6953ZM238.488 85.7905L239.42 85.429L239.42 85.429L238.488 85.7905ZM238.994 89.892V90.892H239.994V89.892H238.994ZM228.483 89.892H227.483V90.892H228.483V89.892ZM228.483 88.081V87.081H227.483V88.081H228.483ZM236.863 88.081V89.081H237.863V88.081H236.863ZM236.402 86.0213L235.507 86.4685L235.511 86.4755L236.402 86.0213ZM235.106 84.592L234.574 85.439L234.578 85.4415L235.106 84.592ZM230.969 84.6896L231.529 85.5179L231.531 85.5167L230.969 84.6896ZM229.575 86.2876L228.679 85.8437L228.679 85.8437L229.575 86.2876ZM229.619 92.2269L228.723 92.6712L228.728 92.6801L229.619 92.2269ZM231.119 93.8516L230.616 94.7154L230.622 94.7188L231.119 93.8516ZM234.839 94.1712L235.167 95.116L235.174 95.1135L234.839 94.1712ZM236.002 93.4609L236.696 94.181L236.703 94.1745L236.002 93.4609ZM236.757 92.2713L237.027 91.3085L236.143 91.0603L235.821 91.9202L236.757 92.2713ZM238.781 92.8395L239.736 93.1359L240.041 92.1544L239.051 91.8767L238.781 92.8395ZM237.707 94.6506L238.422 95.3494L238.426 95.3453L237.707 94.6506ZM235.843 95.858L236.201 96.7915L236.207 96.789L235.843 95.858ZM233.348 95.2841C232.184 95.2841 231.238 95.0287 230.468 94.5599L229.428 96.2683C230.563 96.9595 231.884 97.2841 233.348 97.2841V95.2841ZM230.474 94.5637C229.694 94.0815 229.088 93.4102 228.652 92.5227L226.857 93.4049C227.451 94.6125 228.307 95.5748 229.421 96.2644L230.474 94.5637ZM228.655 92.5287C228.223 91.6347 227.991 90.5633 227.991 89.2884H225.991C225.991 90.8069 226.268 92.1858 226.854 93.3988L228.655 92.5287ZM227.991 89.2884C227.991 88.0137 228.223 86.9345 228.657 86.0263L226.852 85.1641C226.268 86.3865 225.991 87.7694 225.991 89.2884H227.991ZM228.656 86.0284C229.099 85.1074 229.698 84.4189 230.449 83.9294L229.357 82.2538C228.274 82.9599 227.441 83.9405 226.854 85.162L228.656 86.0284ZM230.45 83.9286C231.193 83.4434 232.075 83.1861 233.135 83.1861V81.1861C231.733 81.1861 230.46 81.5325 229.356 82.2546L230.45 83.9286ZM233.135 83.1861C233.732 83.1861 234.324 83.2852 234.915 83.4874L235.562 81.595C234.769 81.3237 233.958 81.1861 233.135 81.1861V83.1861ZM234.915 83.4874C235.465 83.6754 235.974 83.9828 236.446 84.4248L237.814 82.9658C237.149 82.3425 236.397 81.8805 235.562 81.595L234.915 83.4874ZM236.45 84.4287C236.886 84.8333 237.262 85.3949 237.556 86.152L239.42 85.429C239.039 84.446 238.51 83.6109 237.81 82.962L236.45 84.4287ZM237.556 86.152C237.835 86.8732 237.994 87.8134 237.994 89.0043H239.994C239.994 87.6501 239.816 86.4479 239.42 85.429L237.556 86.152ZM237.994 89.0043V89.892H239.994V89.0043H237.994ZM238.994 88.892H228.483V90.892H238.994V88.892ZM229.483 89.892V88.081H227.483V89.892H229.483ZM228.483 89.081H236.863V87.081H228.483V89.081ZM237.863 88.081C237.863 87.1752 237.681 86.3295 237.293 85.5671L235.511 86.4755C235.738 86.9205 235.863 87.4479 235.863 88.081H237.863ZM237.296 85.5741C236.913 84.8084 236.356 84.1913 235.633 83.7425L234.578 85.4415C234.98 85.6911 235.287 86.0268 235.507 86.4685L237.296 85.5741ZM235.637 83.745C234.898 83.2812 234.051 83.0682 233.135 83.0682V85.0682C233.734 85.0682 234.2 85.2043 234.574 85.439L235.637 83.745ZM233.135 83.0682C232.127 83.0682 231.203 83.3211 230.406 83.8626L231.531 85.5167C231.953 85.2296 232.473 85.0682 233.135 85.0682V83.0682ZM230.408 83.8613C229.66 84.3672 229.081 85.0327 228.679 85.8437L230.471 86.7316C230.72 86.2287 231.069 85.8288 231.529 85.5179L230.408 83.8613ZM228.679 85.8437C228.283 86.6422 228.086 87.4989 228.086 88.4006H230.086C230.086 87.7989 230.215 87.247 230.471 86.7316L228.679 85.8437ZM228.086 88.4006V89.608H230.086V88.4006H228.086ZM228.086 89.608C228.086 90.749 228.283 91.783 228.723 92.6712L230.515 91.7827C230.245 91.2385 230.086 90.5266 230.086 89.608H228.086ZM228.728 92.6801C229.169 93.5479 229.798 94.2382 230.616 94.7153L231.623 92.9878C231.163 92.7192 230.792 92.3264 230.511 91.7738L228.728 92.6801ZM230.622 94.7188C231.434 95.185 232.353 95.402 233.348 95.402V93.402C232.65 93.402 232.084 93.2521 231.617 92.9843L230.622 94.7188ZM233.348 95.402C233.991 95.402 234.601 95.3121 235.167 95.116L234.512 93.2263C234.19 93.338 233.805 93.402 233.348 93.402V95.402ZM235.174 95.1135C235.75 94.9087 236.262 94.599 236.696 94.181L235.308 92.7409C235.091 92.9503 234.828 93.114 234.505 93.2289L235.174 95.1135ZM236.703 94.1745C237.143 93.7421 237.47 93.2175 237.693 92.6224L235.821 91.9202C235.689 92.2721 235.512 92.5406 235.302 92.7474L236.703 94.1745ZM236.487 93.2341L238.511 93.8023L239.051 91.8767L237.027 91.3085L236.487 93.2341ZM237.826 92.5431C237.66 93.0791 237.383 93.5466 236.988 93.9558L238.426 95.3453C239.037 94.7128 239.476 93.973 239.736 93.1359L237.826 92.5431ZM236.992 93.9517C236.597 94.3552 236.099 94.6832 235.478 94.9269L236.207 96.789C237.065 96.4527 237.81 95.9758 238.422 95.3494L236.992 93.9517ZM235.484 94.9244C234.876 95.158 234.168 95.2841 233.348 95.2841V97.2841C234.374 97.2841 235.33 97.1261 236.201 96.7915L235.484 94.9244ZM251.84 85.4176L252.113 86.3798L253.122 86.0942L252.788 85.0997L251.84 85.4176ZM249.958 85.9503L249.023 86.3033L249.347 87.1626L250.231 86.9125L249.958 85.9503ZM249.434 85.0359L248.633 85.6333L248.639 85.6422L248.646 85.6509L249.434 85.0359ZM248.511 84.2901L248.958 83.3957L248.958 83.3957L248.511 84.2901ZM244.925 84.5742L245.491 85.398L245.493 85.3967L244.925 84.5742ZM244.667 87.2553L244.044 88.0374L244.044 88.0374L244.667 87.2553ZM246.443 88.0099L246.2 88.9801L246.204 88.9811L246.443 88.0099ZM248.467 88.5071L248.228 89.4782L248.231 89.4789L248.467 88.5071ZM251.192 89.8654L250.478 90.5656L250.482 90.569L251.192 89.8654ZM251.414 94.2955L250.607 93.7054L250.603 93.7105L251.414 94.2955ZM243.309 95.3786L243.861 94.5448L243.861 94.5448L243.309 95.3786ZM241.578 92.733L241.335 91.7628L240.402 91.9961L240.599 92.9377L241.578 92.733ZM243.566 92.2358L244.535 91.9859L244.287 91.0249L243.324 91.2657L243.566 92.2358ZM244.64 93.8871L244.069 94.7076L244.073 94.7106L244.64 93.8871ZM249.053 93.8161L249.638 94.627L249.639 94.6259L249.053 93.8161ZM249.426 91.1172L248.725 91.8307L248.731 91.837L249.426 91.1172ZM247.899 90.3892L247.67 91.3628L247.672 91.3632L247.899 90.3892ZM245.626 89.8565L245.395 90.8296L245.398 90.8302L245.626 89.8565ZM242.874 88.4805L242.139 89.1594L242.146 89.1665L242.874 88.4805ZM242.652 84.0859L241.848 83.4911L241.844 83.4963L242.652 84.0859ZM244.436 82.6921L244.029 81.7786L244.027 81.7798L244.436 82.6921ZM250.189 83.0739L249.579 83.8665L249.582 83.8687L250.189 83.0739ZM251.568 84.4554L249.686 84.9881L250.231 86.9125L252.113 86.3798L251.568 84.4554ZM250.894 85.5972C250.736 85.1788 250.508 84.7868 250.223 84.4208L248.646 85.6509C248.822 85.8768 248.944 86.0944 249.023 86.3033L250.894 85.5972ZM250.236 84.4384C249.904 83.9925 249.466 83.6497 248.958 83.3957L248.064 85.1846C248.337 85.3212 248.515 85.4755 248.633 85.6333L250.236 84.4384ZM248.958 83.3957C248.385 83.1091 247.718 82.9972 247.011 82.9972V84.9972C247.523 84.9972 247.856 85.0806 248.064 85.1846L248.958 83.3957ZM247.011 82.9972C246.021 82.9972 245.115 83.2269 244.356 83.7517L245.493 85.3967C245.847 85.1522 246.332 84.9972 247.011 84.9972V82.9972ZM244.358 83.7504C243.58 84.2854 243.099 85.056 243.099 86.0213H245.099C245.099 85.8147 245.168 85.6206 245.491 85.398L244.358 83.7504ZM243.099 86.0213C243.099 86.8202 243.407 87.53 244.044 88.0374L245.29 86.4733C245.169 86.377 245.099 86.264 245.099 86.0213H243.099ZM244.044 88.0374C244.587 88.4706 245.342 88.7655 246.2 88.9801L246.685 87.0398C245.934 86.852 245.504 86.6438 245.29 86.4733L244.044 88.0374ZM246.204 88.9811L248.228 89.4782L248.705 87.536L246.681 87.0388L246.204 88.9811ZM248.231 89.4789C249.349 89.7502 250.059 90.138 250.478 90.5656L251.906 89.1653C251.13 88.3736 250.023 87.8559 248.703 87.5353L248.231 89.4789ZM250.482 90.569C250.871 90.962 251.089 91.476 251.089 92.2003H253.089C253.089 91.0188 252.709 89.9762 251.903 89.1618L250.482 90.569ZM251.089 92.2003C251.089 92.775 250.928 93.2657 250.607 93.7054L252.222 94.8855C252.8 94.0942 253.089 93.188 253.089 92.2003H251.089ZM250.603 93.7105C250.278 94.1619 249.806 94.5433 249.144 94.8376L249.956 96.6652C250.892 96.2493 251.663 95.6601 252.225 94.8804L250.603 93.7105ZM249.144 94.8376C248.497 95.1252 247.711 95.2841 246.762 95.2841V97.2841C247.933 97.2841 249.005 97.0879 249.956 96.6652L249.144 94.8376ZM246.762 95.2841C245.515 95.2841 244.569 95.014 243.861 94.5448L242.757 96.2123C243.871 96.9505 245.228 97.2841 246.762 97.2841V95.2841ZM243.861 94.5448C243.188 94.0994 242.75 93.4545 242.556 92.5282L240.599 92.9377C240.89 94.3315 241.606 95.4503 242.757 96.2123L243.861 94.5448ZM241.82 93.7031L243.809 93.2059L243.324 91.2657L241.335 91.7628L241.82 93.7031ZM242.598 92.4857C242.836 93.4071 243.312 94.1801 244.069 94.7076L245.212 93.0665C244.916 92.8602 244.676 92.5323 244.535 91.9859L242.598 92.4857ZM244.073 94.7106C244.819 95.2246 245.731 95.4375 246.727 95.4375V93.4375C246.006 93.4375 245.527 93.2834 245.208 93.0636L244.073 94.7106ZM246.727 95.4375C247.836 95.4375 248.84 95.203 249.638 94.627L248.468 93.0052C248.118 93.2577 247.571 93.4375 246.727 93.4375V95.4375ZM249.639 94.6259C250.414 94.0646 250.923 93.2859 250.923 92.3068H248.923C248.923 92.4996 248.851 92.7271 248.466 93.0062L249.639 94.6259ZM250.923 92.3068C250.923 91.5705 250.653 90.9113 250.12 90.3973L248.731 91.837C248.861 91.9622 248.923 92.0962 248.923 92.3068H250.923ZM250.126 90.4037C249.613 89.8993 248.905 89.5967 248.125 89.4152L247.672 91.3632C248.265 91.5013 248.576 91.684 248.725 91.8306L250.126 90.4037ZM248.127 89.4156L245.854 88.8829L245.398 90.8302L247.67 91.3628L248.127 89.4156ZM245.856 88.8835C244.708 88.6114 244.002 88.219 243.601 87.7945L242.146 89.1665C242.918 89.9848 244.046 90.5098 245.395 90.8296L245.856 88.8835ZM243.608 87.8016C243.217 87.3784 243.004 86.8449 243.004 86.1278H241.004C241.004 87.2929 241.371 88.3278 242.139 89.1593L243.608 87.8016ZM243.004 86.1278C243.004 85.5591 243.159 85.0873 243.459 84.6755L241.844 83.4963C241.281 84.2683 241.004 85.1578 241.004 86.1278H243.004ZM243.456 84.6808C243.78 84.2426 244.232 83.8801 244.846 83.6044L244.027 81.7798C243.138 82.1789 242.4 82.7455 241.848 83.4911L243.456 84.6808ZM244.843 83.6056C245.454 83.3335 246.17 83.1861 247.011 83.1861V81.1861C245.934 81.1861 244.934 81.376 244.029 81.7786L244.843 83.6056ZM247.011 83.1861C248.224 83.1861 249.042 83.4528 249.579 83.8665L250.799 82.2812C249.798 81.5112 248.496 81.1861 247.011 81.1861V83.1861ZM249.582 83.8687C250.191 84.3331 250.627 84.9445 250.892 85.7356L252.788 85.0997C252.403 83.9494 251.738 82.9983 250.796 82.279L249.582 83.8687ZM262.558 96H261.558V97H262.558V96ZM262.558 77.8182V76.8182H261.558V77.8182H262.558ZM272.199 78.5906L271.705 79.4599L271.712 79.4636L272.199 78.5906ZM274.224 80.6591L273.33 81.1087L273.33 81.1087L274.224 80.6591ZM274.224 86.4918L273.329 86.0446L273.327 86.0495L274.224 86.4918ZM272.217 88.587L272.712 89.4563L272.716 89.4538L272.217 88.587ZM264.334 89.3594H263.334V90.3594H264.334V89.3594ZM264.334 87.4062V86.4062H263.334V87.4062H264.334ZM271.019 86.9002L270.524 86.0314L270.524 86.0314L271.019 86.9002ZM272.306 85.533L271.401 85.1081L271.399 85.1122L272.306 85.533ZM272.306 81.6179L271.399 82.0387L271.402 82.0464L272.306 81.6179ZM271.01 80.2685L270.525 81.1431L270.532 81.1467L271.01 80.2685ZM264.76 79.7713V78.7713H263.76V79.7713H264.76ZM264.76 96V97H265.76V96H264.76ZM263.558 96V77.8182H261.558V96H263.558ZM262.558 78.8182H268.702V76.8182H262.558V78.8182ZM268.702 78.8182C270.016 78.8182 270.996 79.0565 271.705 79.4598L272.694 77.7213C271.592 77.0948 270.24 76.8182 268.702 76.8182V78.8182ZM271.712 79.4636C272.462 79.8825 272.989 80.4302 273.33 81.1087L275.117 80.2094C274.582 79.1479 273.76 78.3166 272.687 77.7175L271.712 79.4636ZM273.33 81.1087C273.691 81.8258 273.881 82.6401 273.881 83.571H275.881C275.881 82.3594 275.632 81.2325 275.117 80.2094L273.33 81.1087ZM273.881 83.571C273.881 84.5019 273.691 85.3202 273.329 86.0446L275.118 86.939C275.632 85.9116 275.881 84.7827 275.881 83.571H273.881ZM273.327 86.0495C272.989 86.735 272.465 87.291 271.719 87.7202L272.716 89.4538C273.781 88.8414 274.594 88.0006 275.12 86.9342L273.327 86.0495ZM271.723 87.7177C271.012 88.1217 270.038 88.3594 268.737 88.3594V90.3594C270.265 90.3594 271.611 90.0821 272.712 89.4563L271.723 87.7177ZM268.737 88.3594H264.334V90.3594H268.737V88.3594ZM265.334 89.3594V87.4062H263.334V89.3594H265.334ZM264.334 88.4062H268.666V86.4062H264.334V88.4062ZM268.666 88.4062C269.746 88.4062 270.72 88.2217 271.514 87.769L270.524 86.0314C270.134 86.2535 269.54 86.4062 268.666 86.4062V88.4062ZM271.514 87.769C272.272 87.337 272.853 86.7311 273.213 85.9539L271.399 85.1122C271.227 85.4832 270.949 85.7887 270.524 86.0314L271.514 87.769ZM273.211 85.9579C273.554 85.2279 273.714 84.4258 273.714 83.571H271.714C271.714 84.1722 271.603 84.6781 271.401 85.1081L273.211 85.9579ZM273.714 83.571C273.714 82.7164 273.554 81.9157 273.21 81.1894L271.402 82.0464C271.603 82.4683 271.714 82.9696 271.714 83.571H273.714ZM273.213 81.1971C272.85 80.4134 272.259 79.8101 271.488 79.3902L270.532 81.1467C270.956 81.3779 271.23 81.6742 271.399 82.0387L273.213 81.1971ZM271.495 79.3939C270.697 78.9516 269.718 78.7713 268.631 78.7713V80.7713C269.52 80.7713 270.127 80.9225 270.525 81.143L271.495 79.3939ZM268.631 78.7713H264.76V80.7713H268.631V78.7713ZM263.76 79.7713V96H265.76V79.7713H263.76ZM264.76 95H262.558V97H264.76V95ZM280.238 77.8182H281.238V76.8182H280.238V77.8182ZM280.238 96V97H281.238V96H280.238ZM278.143 96H277.143V97H278.143V96ZM278.143 77.8182V76.8182H277.143V77.8182H278.143ZM279.238 77.8182V96H281.238V77.8182H279.238ZM280.238 95H278.143V97H280.238V95ZM279.143 96V77.8182H277.143V96H279.143ZM278.143 78.8182H280.238V76.8182H278.143V78.8182ZM285.736 95.8313L285.31 96.7362L285.316 96.7391L285.736 95.8313ZM284.058 94.402L283.224 94.9531L283.226 94.9567L284.058 94.402ZM283.898 90.2294L284.743 90.765L284.746 90.7603L283.898 90.2294ZM286.837 88.4538L287.051 89.4307L287.058 89.4291L286.837 88.4538ZM288.728 88.1165L288.6 87.1246L288.598 87.1249L288.728 88.1165ZM290.743 87.8768L290.846 88.8715L290.856 88.8704L290.743 87.8768ZM291.879 87.5838L291.39 86.7116L291.381 86.7169L291.879 87.5838ZM291.524 84.7607L290.809 85.459L290.813 85.4634L291.524 84.7607ZM287.014 84.6896L287.625 85.4816L287.625 85.4816L287.014 84.6896ZM285.816 86.0923L285.48 87.0341L286.339 87.3409L286.723 86.5134L285.816 86.0923ZM283.827 85.3821L282.908 84.9882L282.489 85.966L283.491 86.3238L283.827 85.3821ZM285.248 83.4467L285.863 84.2352L285.864 84.2344L285.248 83.4467ZM287.201 82.4702L287.453 83.4379L287.458 83.4364L287.201 82.4702ZM290.805 82.3459L290.621 83.3288L290.633 83.3309L290.805 82.3459ZM292.465 82.9762L291.951 83.8337L291.955 83.8362L292.465 82.9762ZM293.806 84.4233L292.93 84.9055L292.93 84.9055L293.806 84.4233ZM294.339 96V97H295.339V96H294.339ZM292.243 96H291.243V97H292.243V96ZM292.243 94.1534H293.243V93.1534H292.243V94.1534ZM292.137 94.1534V93.1534H291.508L291.235 93.7207L292.137 94.1534ZM291.427 95.1033L292.14 95.8042L292.14 95.8042L291.427 95.1033ZM290.104 95.9645L289.709 95.0459L290.104 95.9645ZM290.503 93.9492L290.01 93.0793L290.006 93.0815L290.503 93.9492ZM291.8 92.6886L290.932 92.1903L290.928 92.1978L291.8 92.6886ZM292.243 89.1463H293.243V86.3842L291.475 88.5061L292.243 89.1463ZM291.657 89.4393L291.927 90.4023L291.94 90.3986L291.657 89.4393ZM290.628 89.6612L290.78 90.6497L290.792 90.6476L290.628 89.6612ZM289.5 89.821L289.614 90.8146L289.628 90.8128L289.5 89.821ZM288.621 89.9276L288.751 90.9192L288.752 90.919L288.621 89.9276ZM287.094 90.2738L287.407 91.2237L287.414 91.2213L287.094 90.2738ZM285.958 90.9751L285.224 90.2963L285.223 90.2969L285.958 90.9751ZM286.34 93.8871L285.77 94.7093L285.781 94.7163L286.34 93.8871ZM288.089 95.3196C287.353 95.3196 286.714 95.1817 286.156 94.9236L285.316 96.7391C286.167 97.132 287.096 97.3196 288.089 97.3196V95.3196ZM286.162 94.9265C285.615 94.6692 285.199 94.3107 284.89 93.8473L283.226 94.9567C283.746 95.7362 284.448 96.3306 285.31 96.7361L286.162 94.9265ZM284.893 93.8509C284.605 93.4148 284.437 92.8572 284.437 92.1293H282.437C282.437 93.1769 282.683 94.1344 283.224 94.9531L284.893 93.8509ZM284.437 92.1293C284.437 91.4716 284.567 91.0422 284.743 90.7649L283.054 89.6939C282.614 90.3872 282.437 91.2244 282.437 92.1293H284.437ZM284.746 90.7603C284.961 90.4171 285.243 90.1519 285.608 89.9551L284.657 88.1955C283.991 88.555 283.451 89.0593 283.051 89.6985L284.746 90.7603ZM285.608 89.9551C286.034 89.725 286.513 89.5485 287.051 89.4307L286.623 87.477C285.918 87.6314 285.261 87.8692 284.657 88.1955L285.608 89.9551ZM287.058 89.4291C287.655 89.2939 288.255 89.1869 288.858 89.108L288.598 87.1249C287.934 87.2118 287.273 87.3297 286.616 87.4785L287.058 89.4291ZM288.855 89.1083C289.68 89.0023 290.343 88.9235 290.846 88.8715L290.64 86.8821C290.114 86.9366 289.433 87.0176 288.6 87.1246L288.855 89.1083ZM290.856 88.8704C291.411 88.8073 291.958 88.6922 292.378 88.4507L291.381 86.7169C291.328 86.7476 291.117 86.8278 290.63 86.8832L290.856 88.8704ZM292.369 88.4559C292.999 88.1025 293.243 87.4817 293.243 86.8736H291.243C291.243 86.9251 291.234 86.9036 291.262 86.8481C291.277 86.8201 291.297 86.7908 291.323 86.7643C291.349 86.738 291.373 86.7212 291.39 86.7117L292.369 88.4559ZM293.243 86.8736V86.8026H291.243V86.8736H293.243ZM293.243 86.8026C293.243 85.7416 292.948 84.7794 292.236 84.0579L290.813 85.4634C291.059 85.7125 291.243 86.1116 291.243 86.8026H293.243ZM292.24 84.0623C291.511 83.3148 290.486 83.0327 289.367 83.0327V85.0327C290.178 85.0327 290.591 85.2359 290.809 85.459L292.24 84.0623ZM289.367 83.0327C288.231 83.0327 287.204 83.2806 286.404 83.8976L287.625 85.4816C287.961 85.2227 288.502 85.0327 289.367 85.0327V83.0327ZM286.404 83.8976C285.746 84.4044 285.225 84.9905 284.909 85.6712L286.723 86.5134C286.868 86.1999 287.146 85.8508 287.625 85.4816L286.404 83.8976ZM286.152 85.1506L284.164 84.4404L283.491 86.3238L285.48 87.0341L286.152 85.1506ZM284.746 85.776C285.048 85.0714 285.428 84.5741 285.863 84.2352L284.633 82.6582C283.883 83.2426 283.316 84.0356 282.908 84.9882L284.746 85.776ZM285.864 84.2344C286.359 83.8474 286.887 83.5854 287.453 83.4379L286.949 81.5025C286.106 81.7219 285.332 82.1109 284.632 82.6591L285.864 84.2344ZM287.458 83.4364C288.091 83.2679 288.702 83.1861 289.296 83.1861V81.1861C288.517 81.1861 287.732 81.2937 286.943 81.5039L287.458 83.4364ZM289.296 83.1861C289.656 83.1861 290.095 83.2302 290.621 83.3288L290.99 81.363C290.379 81.2485 289.812 81.1861 289.296 81.1861V83.1861ZM290.633 83.3309C291.078 83.4089 291.516 83.573 291.951 83.8337L292.98 82.1187C292.349 81.7402 291.681 81.484 290.978 81.3609L290.633 83.3309ZM291.955 83.8362C292.315 84.0499 292.646 84.389 292.93 84.9055L294.682 83.9411C294.256 83.1674 293.693 82.5418 292.976 82.1162L291.955 83.8362ZM292.93 84.9055C293.174 85.3495 293.339 86.0274 293.339 87.0156H295.339C295.339 85.8377 295.148 84.7873 294.682 83.9411L292.93 84.9055ZM293.339 87.0156V96H295.339V87.0156H293.339ZM294.339 95H292.243V97H294.339V95ZM293.243 96V94.1534H291.243V96H293.243ZM292.243 93.1534H292.137V95.1534H292.243V93.1534ZM291.235 93.7207C291.157 93.8843 290.999 94.1121 290.713 94.4025L292.14 95.8042C292.518 95.4199 292.833 95.0144 293.038 94.5861L291.235 93.7207ZM290.713 94.4025C290.494 94.6262 290.171 94.8472 289.709 95.0459L290.499 96.8831C291.138 96.6083 291.697 96.2552 292.14 95.8042L290.713 94.4025ZM289.709 95.0459C289.316 95.2146 288.788 95.3196 288.089 95.3196V97.3196C288.976 97.3196 289.79 97.1879 290.499 96.8831L289.709 95.0459ZM288.408 95.4375C289.366 95.4375 290.246 95.2492 291 94.8169L290.006 93.0815C289.625 93.3002 289.108 93.4375 288.408 93.4375V95.4375ZM290.997 94.8191C291.71 94.4147 292.282 93.8706 292.671 93.1793L290.928 92.1978C290.738 92.5364 290.445 92.8327 290.01 93.0793L290.997 94.8191ZM292.667 93.1868C293.046 92.5275 293.243 91.815 293.243 91.0639H291.243C291.243 91.4492 291.145 91.8198 290.933 92.1903L292.667 93.1868ZM293.243 91.0639V89.1463H291.243V91.0639H293.243ZM291.475 88.5061C291.519 88.4536 291.557 88.4241 291.573 88.4125C291.59 88.4005 291.596 88.3988 291.583 88.405C291.571 88.4109 291.549 88.4212 291.513 88.4347C291.477 88.4481 291.432 88.4633 291.375 88.4799L291.94 90.3986C292.125 90.3442 292.309 90.278 292.478 90.1939C292.635 90.1149 292.843 89.9891 293.012 89.7865L291.475 88.5061ZM291.388 88.4763C291.135 88.5472 290.828 88.614 290.463 88.6748L290.792 90.6476C291.209 90.5782 291.588 90.4971 291.927 90.4022L291.388 88.4763ZM290.476 88.6728C290.099 88.7309 289.731 88.783 289.372 88.8292L289.628 90.8128C290.004 90.7644 290.387 90.7099 290.78 90.6496L290.476 88.6728ZM289.386 88.8275C289.022 88.8693 288.723 88.9055 288.491 88.9361L288.752 90.919C288.969 90.8904 289.256 90.8556 289.614 90.8145L289.386 88.8275ZM288.492 88.936C287.889 89.0146 287.316 89.1437 286.775 89.3263L287.414 91.2213C287.82 91.0843 288.265 90.9826 288.751 90.9192L288.492 88.936ZM286.782 89.3239C286.178 89.5227 285.645 89.8401 285.224 90.2963L286.692 91.654C286.85 91.4828 287.076 91.3326 287.407 91.2237L286.782 89.3239ZM285.223 90.2969C284.726 90.8356 284.532 91.5226 284.532 92.2358H286.532C286.532 91.8836 286.622 91.7303 286.693 91.6534L285.223 90.2969ZM284.532 92.2358C284.532 93.2493 284.929 94.1266 285.77 94.7093L286.909 93.0649C286.673 92.9018 286.532 92.6783 286.532 92.2358H284.532ZM285.781 94.7163C286.53 95.2213 287.428 95.4375 288.408 95.4375V93.4375C287.719 93.4375 287.238 93.2868 286.899 93.0578L285.781 94.7163ZM304.093 82.3636H305.093V81.3636H304.093V82.3636ZM304.093 84.1392V85.1392H305.093V84.1392H304.093ZM297.026 84.1392H296.026V85.1392H297.026V84.1392ZM297.026 82.3636V81.3636H296.026V82.3636H297.026ZM299.086 79.0966V78.0966H298.086V79.0966H299.086ZM301.181 79.0966H302.181V78.0966H301.181V79.0966ZM301.439 93.4254L300.574 93.9271L300.58 93.9374L300.586 93.9476L301.439 93.4254ZM302.113 94.0114L301.767 94.9494L301.779 94.9538L301.791 94.958L302.113 94.0114ZM303.56 94.1179L303.718 95.1053L303.738 95.1023L303.757 95.0985L303.56 94.1179ZM303.916 94.0469L304.891 93.826L304.676 92.8751L303.719 93.0663L303.916 94.0469ZM304.342 95.929L304.693 96.8653L305.51 96.559L305.317 95.7082L304.342 95.929ZM303.747 96.0888L303.542 95.11L303.531 95.1123L303.52 95.1148L303.747 96.0888ZM301.039 95.7958L300.627 96.7068L300.63 96.7084L301.039 95.7958ZM299.636 94.6328L298.819 95.2088L298.823 95.2149L299.636 94.6328ZM303.093 82.3636V84.1392H305.093V82.3636H303.093ZM304.093 83.1392H297.026V85.1392H304.093V83.1392ZM298.026 84.1392V82.3636H296.026V84.1392H298.026ZM297.026 83.3636H304.093V81.3636H297.026V83.3636ZM299.086 80.0966H301.181V78.0966H299.086V80.0966ZM300.181 79.0966V92.0938H302.181V79.0966H300.181ZM300.181 92.0938C300.181 92.7495 300.271 93.4045 300.574 93.9271L302.304 92.9237C302.264 92.8545 302.181 92.6217 302.181 92.0938H300.181ZM300.586 93.9476C300.86 94.3949 301.249 94.758 301.767 94.9494L302.46 93.0734C302.433 93.0635 302.373 93.036 302.292 92.9033L300.586 93.9476ZM301.791 94.958C302.178 95.0897 302.58 95.1534 302.992 95.1534V93.1534C302.789 93.1534 302.605 93.1224 302.436 93.0647L301.791 94.958ZM302.992 95.1534C303.251 95.1534 303.498 95.1406 303.718 95.1053L303.402 93.1305C303.327 93.1426 303.195 93.1534 302.992 93.1534V95.1534ZM303.757 95.0985C303.905 95.0689 304.023 95.0452 304.112 95.0275L303.719 93.0663C303.631 93.084 303.512 93.1077 303.364 93.1373L303.757 95.0985ZM302.94 94.2677L303.366 96.1498L305.317 95.7082L304.891 93.826L302.94 94.2677ZM303.991 94.9926C303.918 95.0199 303.777 95.0609 303.542 95.11L303.952 97.0676C304.226 97.0101 304.481 96.9446 304.693 96.8653L303.991 94.9926ZM303.52 95.1148C303.367 95.1505 303.127 95.1776 302.779 95.1776V97.1776C303.213 97.1776 303.618 97.1455 303.973 97.0628L303.52 95.1148ZM302.779 95.1776C302.336 95.1776 301.894 95.0831 301.448 94.8832L300.63 96.7084C301.32 97.0175 302.039 97.1776 302.779 97.1776V95.1776ZM301.452 94.8848C301.056 94.7056 300.724 94.4342 300.45 94.0507L298.823 95.2149C299.295 95.8731 299.898 96.377 300.627 96.7068L301.452 94.8848ZM300.454 94.0569C300.232 93.7419 300.086 93.2997 300.086 92.6619H298.086C298.086 93.6103 298.307 94.482 298.819 95.2088L300.454 94.0569ZM300.086 92.6619V79.0966H298.086V92.6619H300.086ZM313.317 82.3636H314.317V81.3636H313.317V82.3636ZM313.317 84.1392V85.1392H314.317V84.1392H313.317ZM305.966 84.1392H304.966V85.1392H305.966V84.1392ZM305.966 82.3636V81.3636H304.966V82.3636H305.966ZM308.168 96H307.168V97H308.168V96ZM308.718 78.5284L307.901 77.9525L307.901 77.9525L308.718 78.5284ZM310.148 77.3565L309.742 76.4427L309.742 76.4427L310.148 77.3565ZM313.264 77.0902L313.017 78.0593L313.017 78.0593L313.264 77.0902ZM313.992 77.321L314.941 77.6372L315.228 76.7759L314.398 76.4072L313.992 77.321ZM313.388 79.1321L313.072 80.0808L314.021 80.397L314.337 79.4483L313.388 79.1321ZM312.944 78.9989L312.666 79.9593L312.674 79.9616L312.944 78.9989ZM310.716 79.4428L309.966 78.7816L309.959 78.7889L310.716 79.4428ZM310.263 96V97H311.263V96H310.263ZM312.317 82.3636V84.1392H314.317V82.3636H312.317ZM313.317 83.1392H305.966V85.1392H313.317V83.1392ZM306.966 84.1392V82.3636H304.966V84.1392H306.966ZM305.966 83.3636H313.317V81.3636H305.966V83.3636ZM309.168 96V80.4815H307.168V96H309.168ZM309.168 80.4815C309.168 79.8592 309.312 79.4217 309.536 79.1044L307.901 77.9525C307.391 78.6768 307.168 79.5414 307.168 80.4815H309.168ZM309.536 79.1044C309.798 78.7322 310.132 78.4579 310.554 78.2703L309.742 76.4427C308.992 76.776 308.373 77.2829 307.901 77.9525L309.536 79.1044ZM310.554 78.2703C311.01 78.0676 311.49 77.9659 312.003 77.9659V75.9659C311.215 75.9659 310.457 76.1246 309.742 76.4427L310.554 78.2703ZM312.003 77.9659C312.474 77.9659 312.803 78.0048 313.017 78.0593L313.511 76.1211C313.074 76.0099 312.562 75.9659 312.003 75.9659V77.9659ZM313.017 78.0593C313.328 78.1385 313.505 78.1989 313.586 78.2348L314.398 76.4072C314.159 76.3011 313.851 76.2077 313.511 76.1211L313.017 78.0593ZM313.043 77.0048L312.44 78.8159L314.337 79.4483L314.941 77.6372L313.043 77.0048ZM313.704 78.1834C313.576 78.1405 313.41 78.0912 313.215 78.0363L312.674 79.9616C312.857 80.0132 312.988 80.0527 313.072 80.0808L313.704 78.1834ZM313.223 78.0386C312.912 77.9484 312.565 77.919 312.216 77.919V79.919C312.472 79.919 312.609 79.943 312.666 79.9593L313.223 78.0386ZM312.216 77.919C311.378 77.919 310.54 78.1297 309.966 78.7816L311.466 80.104C311.507 80.0575 311.669 79.919 312.216 79.919V77.919ZM309.959 78.7889C309.442 79.3877 309.263 80.1722 309.263 80.9787H311.263C311.263 80.4357 311.386 80.1963 311.473 80.0968L309.959 78.7889ZM309.263 80.9787V96H311.263V80.9787H309.263ZM310.263 95H308.168V97H310.263V95ZM317.991 95.4052L317.456 96.2495L317.458 96.2511L317.991 95.4052ZM315.825 92.946L314.927 93.3851L314.929 93.3892L315.825 92.946ZM315.825 85.533L314.928 85.0918L314.926 85.0959L315.825 85.533ZM317.991 83.065L317.458 82.2191L317.456 82.2207L317.991 83.065ZM324.463 83.065L323.928 83.9093L323.93 83.9109L324.463 83.065ZM326.63 85.533L325.73 85.9702L325.732 85.9742L326.63 85.533ZM326.63 92.946L325.733 92.5028L325.731 92.5069L326.63 92.946ZM324.463 95.4052L323.93 94.5593L323.928 94.5609L324.463 95.4052ZM323.54 93.6829L322.918 92.8998L322.918 92.8998L323.54 93.6829ZM324.881 91.7919L325.818 92.1399L325.818 92.1399L324.881 91.7919ZM324.881 86.7049L325.819 86.3592L325.819 86.3592L324.881 86.7049ZM323.54 84.7962L324.167 84.0168L324.167 84.0168L323.54 84.7962ZM318.924 84.7962L318.297 84.0168L318.297 84.0168L318.924 84.7962ZM317.583 86.7049L316.645 86.3592L316.645 86.3592L317.583 86.7049ZM317.583 91.7919L316.646 92.1399L316.646 92.1399L317.583 91.7919ZM318.924 93.6829L319.545 92.8998L319.545 92.8998L318.924 93.6829ZM321.232 95.2841C320.166 95.2841 319.276 95.0327 318.525 94.5593L317.458 96.2511C318.566 96.9495 319.835 97.2841 321.232 97.2841V95.2841ZM318.527 94.5609C317.77 94.0804 317.168 93.4049 316.722 92.5028L314.929 93.3892C315.524 94.5942 316.366 95.5581 317.456 96.2495L318.527 94.5609ZM316.724 92.5069C316.288 91.6149 316.053 90.5395 316.053 89.2528H314.053C314.053 90.7834 314.333 92.1701 314.927 93.3851L316.724 92.5069ZM316.053 89.2528C316.053 87.9531 316.288 86.8682 316.725 85.9702L314.926 85.0959C314.332 86.3167 314.053 87.7117 314.053 89.2528H316.053ZM316.723 85.9742C317.169 85.0662 317.772 84.3889 318.527 83.9093L317.456 82.2207C316.365 82.913 315.523 83.881 314.928 85.0918L316.723 85.9742ZM318.525 83.9109C319.276 83.4374 320.166 83.1861 321.232 83.1861V81.1861C319.835 81.1861 318.566 81.5207 317.458 82.2191L318.525 83.9109ZM321.232 83.1861C322.298 83.1861 323.184 83.4375 323.928 83.9093L324.999 82.2207C323.896 81.5206 322.628 81.1861 321.232 81.1861V83.1861ZM323.93 83.9109C324.69 84.3901 325.291 85.0658 325.73 85.9702L327.529 85.0959C326.939 83.8814 326.095 82.9117 324.997 82.2191L323.93 83.9109ZM325.732 85.9742C326.173 86.8712 326.411 87.9547 326.411 89.2528H328.411C328.411 87.7101 328.128 86.3137 327.527 85.0918L325.732 85.9742ZM326.411 89.2528C326.411 90.5379 326.174 91.6119 325.733 92.5028L327.526 93.3892C328.127 92.1732 328.411 90.785 328.411 89.2528H326.411ZM325.731 92.5069C325.292 93.4053 324.691 94.0792 323.93 94.5593L324.997 96.2511C326.094 95.5593 326.937 94.5938 327.528 93.3851L325.731 92.5069ZM323.928 94.5609C323.184 95.0327 322.298 95.2841 321.232 95.2841V97.2841C322.628 97.2841 323.896 96.9495 324.999 96.2495L323.928 94.5609ZM321.232 95.402C322.343 95.402 323.346 95.1139 324.162 94.466L322.918 92.8998C322.527 93.2107 321.991 93.402 321.232 93.402V95.402ZM324.162 94.466C324.92 93.8639 325.47 93.0779 325.818 92.1399L323.943 91.4439C323.711 92.0684 323.367 92.543 322.918 92.8998L324.162 94.466ZM325.818 92.1399C326.153 91.2373 326.316 90.272 326.316 89.2528H324.316C324.316 90.0566 324.188 90.784 323.943 91.4439L325.818 92.1399ZM326.316 89.2528C326.316 88.2336 326.153 87.2663 325.819 86.3592L323.942 87.0506C324.188 87.7179 324.316 88.4491 324.316 89.2528H326.316ZM325.819 86.3592C325.472 85.4165 324.923 84.6251 324.167 84.0168L322.913 85.5755C323.364 85.9379 323.71 86.419 323.942 87.0506L325.819 86.3592ZM324.167 84.0168C323.351 83.3608 322.346 83.0682 321.232 83.0682V85.0682C321.988 85.0682 322.522 85.2609 322.913 85.5755L324.167 84.0168ZM321.232 83.0682C320.118 83.0682 319.113 83.3608 318.297 84.0168L319.55 85.5755C319.942 85.2609 320.476 85.0682 321.232 85.0682V83.0682ZM318.297 84.0168C317.54 84.6251 316.992 85.4165 316.645 86.3592L318.521 87.0506C318.754 86.419 319.099 85.9379 319.55 85.5755L318.297 84.0168ZM316.645 86.3592C316.31 87.2663 316.148 88.2336 316.148 89.2528H318.148C318.148 88.4491 318.276 87.7179 318.521 87.0506L316.645 86.3592ZM316.148 89.2528C316.148 90.272 316.31 91.2373 316.646 92.1399L318.52 91.4439C318.276 90.784 318.148 90.0566 318.148 89.2528H316.148ZM316.646 92.1399C316.994 93.0779 317.544 93.8639 318.302 94.466L319.545 92.8998C319.096 92.543 318.752 92.0684 318.52 91.4439L316.646 92.1399ZM318.302 94.466C319.118 95.1139 320.12 95.402 321.232 95.402V93.402C320.473 93.402 319.937 93.2107 319.545 92.8998L318.302 94.466ZM330.609 96H329.609V97H330.609V96ZM330.609 82.3636V81.3636H329.609V82.3636H330.609ZM332.633 82.3636H333.633V81.3636H332.633V82.3636ZM332.633 84.4233H331.633V85.4233H332.633V84.4233ZM332.775 84.4233V85.4233H333.473L333.714 84.769L332.775 84.4233ZM334.125 82.7809L333.582 81.9407L333.582 81.9407L334.125 82.7809ZM337.427 82.1861H338.427V81.2811L337.527 81.191L337.427 82.1861ZM337.427 84.3168L337.185 85.2869L338.427 85.5975V84.3168H337.427ZM336.939 84.2369L336.775 85.2233L336.788 85.2254L336.801 85.2273L336.939 84.2369ZM334.373 84.592L334.841 85.476L334.844 85.474L334.373 84.592ZM333.148 85.7283L332.299 85.2002L332.297 85.2031L333.148 85.7283ZM332.704 96V97H333.704V96H332.704ZM331.609 96V82.3636H329.609V96H331.609ZM330.609 83.3636H332.633V81.3636H330.609V83.3636ZM331.633 82.3636V84.4233H333.633V82.3636H331.633ZM332.633 85.4233H332.775V83.4233H332.633V85.4233ZM333.714 84.769C333.881 84.3138 334.183 83.9334 334.667 83.6211L333.582 81.9407C332.764 82.4688 332.166 83.1833 331.837 84.0776L333.714 84.769ZM334.667 83.6211C335.147 83.311 335.691 83.1506 336.326 83.1506V81.1506C335.328 81.1506 334.404 81.4104 333.582 81.9407L334.667 83.6211ZM336.326 83.1506C336.469 83.1506 336.652 83.1533 336.878 83.1591L336.929 81.1598C336.693 81.1537 336.492 81.1506 336.326 81.1506V83.1506ZM336.878 83.1591C337.102 83.1649 337.247 83.1731 337.328 83.1811L337.527 81.191C337.371 81.1754 337.166 81.1659 336.929 81.1598L336.878 83.1591ZM336.427 82.1861V84.3168H338.427V82.1861H336.427ZM337.67 83.3466C337.537 83.3133 337.317 83.2799 337.077 83.2465L336.801 85.2273C336.924 85.2445 337.02 85.2588 337.09 85.2703C337.17 85.2833 337.193 85.2889 337.185 85.2869L337.67 83.3466ZM337.103 83.2505C336.795 83.1991 336.476 83.1747 336.149 83.1747V85.1747C336.377 85.1747 336.586 85.1918 336.775 85.2233L337.103 83.2505ZM336.149 83.1747C335.342 83.1747 334.585 83.3452 333.902 83.7099L334.844 85.474C335.203 85.2824 335.63 85.1747 336.149 85.1747V83.1747ZM333.906 83.7079C333.238 84.0613 332.696 84.5616 332.299 85.2002L333.997 86.2565C334.204 85.9245 334.479 85.6672 334.841 85.476L333.906 83.7079ZM332.297 85.2031C331.895 85.8548 331.704 86.5875 331.704 87.3707H333.704C333.704 86.923 333.809 86.5607 333.999 86.2536L332.297 85.2031ZM331.704 87.3707V96H333.704V87.3707H331.704ZM332.704 95H330.609V97H332.704V95ZM339.911 96H338.911V97H339.911V96ZM339.911 82.3636V81.3636H338.911V82.3636H339.911ZM341.935 82.3636H342.935V81.3636H341.935V82.3636ZM341.935 84.4943H340.935V85.4943H341.935V84.4943ZM342.112 84.4943V85.4943H342.796L343.044 84.8579L342.112 84.4943ZM343.489 82.7987L344.025 83.6427L344.03 83.6391L343.489 82.7987ZM348.016 82.7987L347.452 83.6244L347.462 83.6307L348.016 82.7987ZM349.428 84.4943L348.521 84.9148L348.789 85.4943H349.428V84.4943ZM349.57 84.4943V85.4943H350.19L350.466 84.9385L349.57 84.4943ZM351.141 82.8164L351.651 83.6765L351.657 83.6733L351.141 82.8164ZM356.646 83.3313L355.944 84.0439L355.947 84.0466L356.646 83.3313ZM357.809 96V97H358.809V96H357.809ZM355.713 96H354.713V97H355.713V96ZM354.888 84.7163L354.27 85.5029L354.27 85.5029L354.888 84.7163ZM350.715 84.9382L351.452 85.6143L351.455 85.6105L350.715 84.9382ZM349.925 96V97H350.925V96H349.925ZM347.794 96H346.794V97H347.794V96ZM347.04 84.7873L346.35 85.5112L346.354 85.5155L347.04 84.7873ZM343.568 84.5032L343.046 83.6504L343.041 83.6534L343.568 84.5032ZM342.432 85.7106L341.561 85.2198L341.559 85.2232L342.432 85.7106ZM342.006 96V97H343.006V96H342.006ZM340.911 96V82.3636H338.911V96H340.911ZM339.911 83.3636H341.935V81.3636H339.911V83.3636ZM340.935 82.3636V84.4943H342.935V82.3636H340.935ZM341.935 85.4943H342.112V83.4943H341.935V85.4943ZM343.044 84.8579C343.254 84.3192 343.579 83.9261 344.025 83.6426L342.952 81.9547C342.132 82.4761 341.539 83.2135 341.181 84.1308L343.044 84.8579ZM344.03 83.6391C344.475 83.3523 345.04 83.1861 345.77 83.1861V81.1861C344.725 81.1861 343.768 81.4283 342.947 81.9582L344.03 83.6391ZM345.77 83.1861C346.518 83.1861 347.057 83.3544 347.452 83.6244L348.58 81.9729C347.78 81.4261 346.822 81.1861 345.77 81.1861V83.1861ZM347.462 83.6307C347.896 83.9204 348.252 84.3356 348.521 84.9148L350.335 84.0739C349.929 83.1971 349.344 82.4818 348.571 81.9666L347.462 83.6307ZM349.428 85.4943H349.57V83.4943H349.428V85.4943ZM350.466 84.9385C350.726 84.4131 351.113 83.9957 351.651 83.6765L350.631 81.9564C349.772 82.4657 349.112 83.1669 348.674 84.0501L350.466 84.9385ZM351.657 83.6733C352.171 83.3637 352.823 83.1861 353.654 83.1861V81.1861C352.532 81.1861 351.508 81.4286 350.626 81.9596L351.657 83.6733ZM353.654 83.1861C354.645 83.1861 355.379 83.4874 355.944 84.0438L357.347 82.6188C356.362 81.6482 355.101 81.1861 353.654 81.1861V83.1861ZM355.947 84.0466C356.454 84.5418 356.809 85.4101 356.809 86.8736H358.809C358.809 85.1292 358.388 83.6359 357.344 82.6161L355.947 84.0466ZM356.809 86.8736V96H358.809V86.8736H356.809ZM357.809 95H355.713V97H357.809V95ZM356.713 96V86.8736H354.713V96H356.713ZM356.713 86.8736C356.713 85.701 356.389 84.6238 355.505 83.9297L354.27 85.5029C354.487 85.6728 354.713 86.0339 354.713 86.8736H356.713ZM355.505 83.9297C354.767 83.3499 353.897 83.0682 352.943 83.0682V85.0682C353.481 85.0682 353.908 85.2185 354.27 85.5029L355.505 83.9297ZM352.943 83.0682C351.771 83.0682 350.733 83.4316 349.975 84.2659L351.455 85.6105C351.751 85.2848 352.198 85.0682 352.943 85.0682V83.0682ZM349.978 84.2621C349.26 85.0453 348.925 86.0254 348.925 87.1222H350.925C350.925 86.4551 351.117 85.9793 351.452 85.6143L349.978 84.2621ZM348.925 87.1222V96H350.925V87.1222H348.925ZM349.925 95H347.794V97H349.925V95ZM348.794 96V86.6605H346.794V96H348.794ZM348.794 86.6605C348.794 85.6466 348.454 84.7456 347.725 84.0591L346.354 85.5155C346.631 85.7759 346.794 86.1237 346.794 86.6605H348.794ZM347.73 84.0634C347.014 83.3815 346.106 83.0682 345.095 83.0682V85.0682C345.671 85.0682 346.059 85.2343 346.35 85.5112L347.73 84.0634ZM345.095 83.0682C344.363 83.0682 343.674 83.2661 343.046 83.6504L344.091 85.3559C344.41 85.1602 344.739 85.0682 345.095 85.0682V83.0682ZM343.041 83.6534C342.42 84.0387 341.927 84.5694 341.561 85.2198L343.303 86.2013C343.517 85.822 343.782 85.5477 344.096 85.353L343.041 83.6534ZM341.559 85.2232C341.18 85.9019 341.006 86.6633 341.006 87.4773H343.006C343.006 86.9537 343.116 86.5372 343.305 86.1979L341.559 85.2232ZM341.006 87.4773V96H343.006V87.4773H341.006ZM342.006 95H339.911V97H342.006V95Z" fill="#020817" mask="url(#path-6-outside-2_1_17)"/>
</svg>