<svg xmlns="http://www.w3.org/2000/svg" width="312" height="110" viewBox="0 0 312 110" fill="none">
<rect width="110" height="110" rx="19" fill="#565F70"/>
<rect x="5" y="5" width="100" height="100" rx="20" fill="#263248"/>
<path d="M68.3333 25H31.6667C28 25 25 28 25 31.6667V78.3333C25 82 28 85 31.6667 85H78.3333C82 85 85 82 85 78.3333V41.6667L68.3333 25ZM38.3333 38.3333H55V45H38.3333V38.3333ZM71.6667 71.6667H38.3333V65H71.6667V71.6667ZM71.6667 58.3333H38.3333V51.6667H71.6667V58.3333ZM65 45V31.6667L78.3333 45H65Z" fill="#FFFCFC"/>
<path d="M170.642 59.5V24.5909H194.983V31.4432H179.08V38.6023H193.739V45.4716H179.08V52.6477H194.983V59.5H170.642ZM229.977 24.5909V59.5H222.818L208.926 39.3523H208.705V59.5H200.267V24.5909H207.528L221.267 44.7045H221.557V24.5909H229.977ZM235.283 59.5V24.5909H249.703C252.317 24.5909 254.572 25.1023 256.47 26.125C258.379 27.1364 259.851 28.5511 260.885 30.3693C261.919 32.1761 262.436 34.2784 262.436 36.6761C262.436 39.0852 261.908 41.1932 260.851 43C259.805 44.7955 258.311 46.1875 256.368 47.1761C254.425 48.1648 252.118 48.6591 249.447 48.6591H240.55V42.0114H247.879C249.152 42.0114 250.214 41.7898 251.067 41.3466C251.93 40.9034 252.584 40.2841 253.027 39.4886C253.47 38.6818 253.692 37.7443 253.692 36.6761C253.692 35.5966 253.47 34.6648 253.027 33.8807C252.584 33.0852 251.93 32.4716 251.067 32.0398C250.203 31.608 249.141 31.392 247.879 31.392H243.72V59.5H235.283Z" fill="#FAFCFF"/>
<path d="M121.761 91.5V76.9545H130.54V78.517H123.523V83.4318H130.085V84.9943H123.523V89.9375H130.653V91.5H121.761ZM136.697 91.7557C136.006 91.7557 135.379 91.6255 134.815 91.3651C134.252 91.0999 133.804 90.7188 133.473 90.2216C133.142 89.7197 132.976 89.1136 132.976 88.4034C132.976 87.7784 133.099 87.2718 133.345 86.8835C133.591 86.4905 133.92 86.1828 134.332 85.9602C134.744 85.7377 135.199 85.572 135.696 85.4631C136.198 85.3494 136.702 85.2595 137.209 85.1932C137.872 85.108 138.409 85.044 138.821 85.0014C139.238 84.9541 139.541 84.8759 139.73 84.767C139.924 84.6581 140.021 84.4687 140.021 84.1989V84.142C140.021 83.4413 139.83 82.8968 139.446 82.5085C139.067 82.1203 138.492 81.9261 137.72 81.9261C136.92 81.9261 136.293 82.1013 135.838 82.4517C135.384 82.8021 135.064 83.1761 134.879 83.5739L133.288 83.0057C133.572 82.3428 133.951 81.8267 134.425 81.4574C134.903 81.0833 135.424 80.8229 135.987 80.6761C136.555 80.5246 137.114 80.4489 137.663 80.4489C138.014 80.4489 138.416 80.4915 138.871 80.5767C139.33 80.6572 139.773 80.8253 140.199 81.081C140.63 81.3366 140.987 81.7225 141.271 82.2386C141.555 82.7547 141.697 83.446 141.697 84.3125V91.5H140.021V90.0227H139.936C139.822 90.2595 139.633 90.5128 139.368 90.7827C139.103 91.0526 138.75 91.2822 138.31 91.4716C137.869 91.661 137.332 91.7557 136.697 91.7557ZM136.953 90.25C137.616 90.25 138.175 90.1198 138.629 89.8594C139.089 89.599 139.434 89.2628 139.666 88.8509C139.903 88.4389 140.021 88.0057 140.021 87.5511V86.017C139.95 86.1023 139.794 86.1804 139.553 86.2514C139.316 86.3177 139.041 86.3769 138.729 86.429C138.421 86.4763 138.12 86.5189 137.827 86.5568C137.538 86.59 137.304 86.6184 137.124 86.642C136.688 86.6989 136.281 86.7912 135.902 86.919C135.528 87.0421 135.225 87.2292 134.993 87.4801C134.766 87.7263 134.652 88.0625 134.652 88.4886C134.652 89.071 134.867 89.5114 135.298 89.8097C135.734 90.1032 136.286 90.25 136.953 90.25ZM152.484 83.0341L150.978 83.4602C150.884 83.2093 150.744 82.9654 150.559 82.7287C150.379 82.4872 150.133 82.2884 149.821 82.1321C149.508 81.9759 149.108 81.8977 148.62 81.8977C147.953 81.8977 147.396 82.0516 146.951 82.3594C146.511 82.6624 146.291 83.0483 146.291 83.517C146.291 83.9337 146.442 84.2628 146.745 84.5043C147.048 84.7457 147.522 84.947 148.166 85.108L149.785 85.5057C150.761 85.7424 151.487 86.1046 151.966 86.5923C152.444 87.0753 152.683 87.6979 152.683 88.4602C152.683 89.0852 152.503 89.6439 152.143 90.1364C151.788 90.6288 151.291 91.017 150.652 91.3011C150.012 91.5852 149.269 91.7273 148.422 91.7273C147.309 91.7273 146.388 91.4858 145.659 91.0028C144.93 90.5199 144.468 89.8144 144.274 88.8864L145.865 88.4886C146.016 89.0758 146.303 89.5161 146.724 89.8097C147.15 90.1032 147.707 90.25 148.393 90.25C149.174 90.25 149.795 90.0843 150.254 89.7528C150.718 89.4167 150.95 89.0142 150.95 88.5455C150.95 88.1667 150.817 87.8494 150.552 87.5938C150.287 87.3333 149.88 87.1392 149.331 87.0114L147.512 86.5852C146.513 86.3485 145.779 85.9815 145.311 85.4844C144.847 84.9825 144.615 84.3551 144.615 83.6023C144.615 82.9867 144.788 82.4422 145.133 81.9688C145.484 81.4953 145.959 81.1236 146.561 80.8537C147.167 80.5838 147.853 80.4489 148.62 80.4489C149.7 80.4489 150.547 80.6856 151.163 81.1591C151.783 81.6326 152.224 82.2576 152.484 83.0341ZM156.286 95.5909C156.001 95.5909 155.748 95.5672 155.526 95.5199C155.303 95.4773 155.149 95.4347 155.064 95.392L155.49 93.9148C155.897 94.0189 156.257 94.0568 156.57 94.0284C156.882 94 157.159 93.8603 157.401 93.6094C157.647 93.3632 157.872 92.9631 158.075 92.4091L158.388 91.5568L154.354 80.5909H156.172L159.183 89.2841H159.297L162.308 80.5909H164.126L159.496 93.0909C159.287 93.6544 159.029 94.1207 158.722 94.4901C158.414 94.8641 158.056 95.1411 157.649 95.321C157.247 95.5009 156.792 95.5909 156.286 95.5909ZM183.725 76.9545V91.5H182.021L174.094 80.0795H173.952V91.5H172.191V76.9545H173.896L181.85 88.4034H181.992V76.9545H183.725ZM191.454 91.7273C190.469 91.7273 189.605 91.4929 188.862 91.0241C188.123 90.5554 187.546 89.8996 187.129 89.0568C186.717 88.214 186.511 87.2292 186.511 86.1023C186.511 84.9659 186.717 83.974 187.129 83.1264C187.546 82.2789 188.123 81.6207 188.862 81.152C189.605 80.6832 190.469 80.4489 191.454 80.4489C192.439 80.4489 193.301 80.6832 194.039 81.152C194.783 81.6207 195.36 82.2789 195.772 83.1264C196.189 83.974 196.397 84.9659 196.397 86.1023C196.397 87.2292 196.189 88.214 195.772 89.0568C195.36 89.8996 194.783 90.5554 194.039 91.0241C193.301 91.4929 192.439 91.7273 191.454 91.7273ZM191.454 90.2216C192.202 90.2216 192.818 90.0298 193.301 89.6463C193.784 89.2628 194.141 88.7585 194.373 88.1335C194.605 87.5085 194.721 86.8314 194.721 86.1023C194.721 85.3731 194.605 84.6937 194.373 84.0639C194.141 83.4342 193.784 82.9252 193.301 82.5369C192.818 82.1487 192.202 81.9545 191.454 81.9545C190.706 81.9545 190.091 82.1487 189.608 82.5369C189.125 82.9252 188.767 83.4342 188.535 84.0639C188.303 84.6937 188.187 85.3731 188.187 86.1023C188.187 86.8314 188.303 87.5085 188.535 88.1335C188.767 88.7585 189.125 89.2628 189.608 89.6463C190.091 90.0298 190.706 90.2216 191.454 90.2216ZM203.7 80.5909V82.0114H198.047V80.5909H203.7ZM199.695 77.9773H201.371V88.375C201.371 88.8485 201.439 89.2036 201.577 89.4403C201.719 89.6723 201.899 89.8286 202.116 89.9091C202.339 89.9848 202.573 90.0227 202.82 90.0227C203.004 90.0227 203.156 90.0133 203.274 89.9943C203.393 89.9706 203.487 89.9517 203.558 89.9375L203.899 91.4432C203.786 91.4858 203.627 91.5284 203.423 91.571C203.22 91.6184 202.962 91.642 202.649 91.642C202.176 91.642 201.712 91.5402 201.257 91.3366C200.807 91.133 200.433 90.8229 200.135 90.4062C199.841 89.9896 199.695 89.464 199.695 88.8295V77.9773ZM210.678 91.7273C209.627 91.7273 208.72 91.4953 207.958 91.0312C207.201 90.5625 206.616 89.9091 206.204 89.071C205.797 88.2282 205.593 87.2481 205.593 86.1307C205.593 85.0133 205.797 84.0284 206.204 83.1761C206.616 82.3191 207.189 81.6515 207.923 81.1733C208.661 80.6903 209.523 80.4489 210.508 80.4489C211.076 80.4489 211.637 80.5436 212.191 80.733C212.745 80.9223 213.249 81.2301 213.704 81.6562C214.158 82.0777 214.521 82.6364 214.79 83.3324C215.06 84.0284 215.195 84.8854 215.195 85.9034V86.6136H206.786V85.1648H213.491C213.491 84.5492 213.368 84 213.121 83.517C212.88 83.0341 212.534 82.6529 212.085 82.3736C211.639 82.0942 211.114 81.9545 210.508 81.9545C209.84 81.9545 209.263 82.1203 208.775 82.4517C208.292 82.7784 207.92 83.2045 207.66 83.7301C207.399 84.2557 207.269 84.8191 207.269 85.4205V86.3864C207.269 87.2102 207.411 87.9086 207.695 88.4815C207.984 89.0497 208.384 89.483 208.896 89.7812C209.407 90.0748 210.001 90.2216 210.678 90.2216C211.119 90.2216 211.516 90.16 211.871 90.0369C212.231 89.9091 212.541 89.7197 212.802 89.4688C213.062 89.2131 213.263 88.8958 213.406 88.517L215.025 88.9716C214.854 89.5208 214.568 90.0038 214.165 90.4205C213.763 90.8324 213.266 91.1544 212.674 91.3864C212.082 91.6136 211.417 91.7273 210.678 91.7273ZM225.472 83.0341L223.967 83.4602C223.872 83.2093 223.732 82.9654 223.548 82.7287C223.368 82.4872 223.121 82.2884 222.809 82.1321C222.496 81.9759 222.096 81.8977 221.609 81.8977C220.941 81.8977 220.385 82.0516 219.94 82.3594C219.499 82.6624 219.279 83.0483 219.279 83.517C219.279 83.9337 219.431 84.2628 219.734 84.5043C220.037 84.7457 220.51 84.947 221.154 85.108L222.773 85.5057C223.749 85.7424 224.476 86.1046 224.954 86.5923C225.432 87.0753 225.671 87.6979 225.671 88.4602C225.671 89.0852 225.491 89.6439 225.131 90.1364C224.776 90.6288 224.279 91.017 223.64 91.3011C223.001 91.5852 222.257 91.7273 221.41 91.7273C220.297 91.7273 219.376 91.4858 218.647 91.0028C217.918 90.5199 217.456 89.8144 217.262 88.8864L218.853 88.4886C219.004 89.0758 219.291 89.5161 219.712 89.8097C220.138 90.1032 220.695 90.25 221.381 90.25C222.163 90.25 222.783 90.0843 223.242 89.7528C223.706 89.4167 223.938 89.0142 223.938 88.5455C223.938 88.1667 223.806 87.8494 223.54 87.5938C223.275 87.3333 222.868 87.1392 222.319 87.0114L220.501 86.5852C219.502 86.3485 218.768 85.9815 218.299 85.4844C217.835 84.9825 217.603 84.3551 217.603 83.6023C217.603 82.9867 217.776 82.4422 218.121 81.9688C218.472 81.4953 218.948 81.1236 219.549 80.8537C220.155 80.5838 220.842 80.4489 221.609 80.4489C222.688 80.4489 223.536 80.6856 224.151 81.1591C224.772 81.6326 225.212 82.2576 225.472 83.0341ZM234.047 91.5V76.9545H238.961C240.102 76.9545 241.035 77.1605 241.76 77.5724C242.489 77.9796 243.029 78.5312 243.379 79.2273C243.729 79.9233 243.904 80.6998 243.904 81.5568C243.904 82.4138 243.729 83.1927 243.379 83.8935C243.033 84.5942 242.498 85.1529 241.774 85.5696C241.049 85.9815 240.121 86.1875 238.99 86.1875H235.467V84.625H238.933C239.714 84.625 240.342 84.4901 240.815 84.2202C241.288 83.9503 241.632 83.5857 241.845 83.1264C242.063 82.6624 242.172 82.1392 242.172 81.5568C242.172 80.9744 242.063 80.4536 241.845 79.9943C241.632 79.535 241.286 79.1752 240.808 78.9148C240.33 78.6496 239.695 78.517 238.904 78.517H235.808V91.5H234.047ZM248.191 76.9545V91.5H246.515V76.9545H248.191ZM254.471 91.7557C253.78 91.7557 253.152 91.6255 252.589 91.3651C252.025 91.0999 251.578 90.7188 251.246 90.2216C250.915 89.7197 250.749 89.1136 250.749 88.4034C250.749 87.7784 250.872 87.2718 251.119 86.8835C251.365 86.4905 251.694 86.1828 252.106 85.9602C252.518 85.7377 252.972 85.572 253.469 85.4631C253.971 85.3494 254.476 85.2595 254.982 85.1932C255.645 85.108 256.183 85.044 256.594 85.0014C257.011 84.9541 257.314 84.8759 257.504 84.767C257.698 84.6581 257.795 84.4687 257.795 84.1989V84.142C257.795 83.4413 257.603 82.8968 257.219 82.5085C256.841 82.1203 256.265 81.9261 255.494 81.9261C254.693 81.9261 254.066 82.1013 253.612 82.4517C253.157 82.8021 252.837 83.1761 252.653 83.5739L251.062 83.0057C251.346 82.3428 251.725 81.8267 252.198 81.4574C252.676 81.0833 253.197 80.8229 253.761 80.6761C254.329 80.5246 254.888 80.4489 255.437 80.4489C255.787 80.4489 256.19 80.4915 256.644 80.5767C257.103 80.6572 257.546 80.8253 257.972 81.081C258.403 81.3366 258.761 81.7225 259.045 82.2386C259.329 82.7547 259.471 83.446 259.471 84.3125V91.5H257.795V90.0227H257.71C257.596 90.2595 257.406 90.5128 257.141 90.7827C256.876 91.0526 256.523 91.2822 256.083 91.4716C255.643 91.661 255.105 91.7557 254.471 91.7557ZM254.727 90.25C255.389 90.25 255.948 90.1198 256.403 89.8594C256.862 89.599 257.208 89.2628 257.44 88.8509C257.676 88.4389 257.795 88.0057 257.795 87.5511V86.017C257.724 86.1023 257.567 86.1804 257.326 86.2514C257.089 86.3177 256.815 86.3769 256.502 86.429C256.194 86.4763 255.894 86.5189 255.6 86.5568C255.311 86.59 255.077 86.6184 254.897 86.642C254.461 86.6989 254.054 86.7912 253.675 86.919C253.301 87.0421 252.998 87.2292 252.766 87.4801C252.539 87.7263 252.425 88.0625 252.425 88.4886C252.425 89.071 252.641 89.5114 253.072 89.8097C253.507 90.1032 254.059 90.25 254.727 90.25ZM267.275 80.5909V82.0114H261.621V80.5909H267.275ZM263.269 77.9773H264.945V88.375C264.945 88.8485 265.014 89.2036 265.151 89.4403C265.293 89.6723 265.473 89.8286 265.691 89.9091C265.913 89.9848 266.148 90.0227 266.394 90.0227C266.578 90.0227 266.73 90.0133 266.848 89.9943C266.967 89.9706 267.061 89.9517 267.132 89.9375L267.473 91.4432C267.36 91.4858 267.201 91.5284 266.998 91.571C266.794 91.6184 266.536 91.642 266.223 91.642C265.75 91.642 265.286 91.5402 264.831 91.3366C264.382 91.133 264.007 90.8229 263.709 90.4062C263.416 89.9896 263.269 89.464 263.269 88.8295V77.9773ZM274.654 80.5909V82.0114H268.773V80.5909H274.654ZM270.534 91.5V79.0852C270.534 78.4602 270.681 77.9394 270.975 77.5227C271.268 77.1061 271.65 76.7936 272.118 76.5852C272.587 76.3769 273.082 76.2727 273.603 76.2727C274.015 76.2727 274.351 76.3059 274.611 76.3722C274.872 76.4384 275.066 76.5 275.194 76.5568L274.711 78.0057C274.625 77.9773 274.507 77.9418 274.355 77.8991C274.209 77.8565 274.015 77.8352 273.773 77.8352C273.219 77.8352 272.819 77.9749 272.573 78.2543C272.331 78.5336 272.211 78.9432 272.211 79.483V91.5H270.534ZM280.985 91.7273C280.001 91.7273 279.136 91.4929 278.393 91.0241C277.654 90.5554 277.077 89.8996 276.66 89.0568C276.248 88.214 276.042 87.2292 276.042 86.1023C276.042 84.9659 276.248 83.974 276.66 83.1264C277.077 82.2789 277.654 81.6207 278.393 81.152C279.136 80.6832 280.001 80.4489 280.985 80.4489C281.97 80.4489 282.832 80.6832 283.571 81.152C284.314 81.6207 284.892 82.2789 285.304 83.1264C285.72 83.974 285.929 84.9659 285.929 86.1023C285.929 87.2292 285.72 88.214 285.304 89.0568C284.892 89.8996 284.314 90.5554 283.571 91.0241C282.832 91.4929 281.97 91.7273 280.985 91.7273ZM280.985 90.2216C281.734 90.2216 282.349 90.0298 282.832 89.6463C283.315 89.2628 283.672 88.7585 283.904 88.1335C284.136 87.5085 284.252 86.8314 284.252 86.1023C284.252 85.3731 284.136 84.6937 283.904 84.0639C283.672 83.4342 283.315 82.9252 282.832 82.5369C282.349 82.1487 281.734 81.9545 280.985 81.9545C280.237 81.9545 279.622 82.1487 279.139 82.5369C278.656 82.9252 278.298 83.4342 278.066 84.0639C277.834 84.6937 277.718 85.3731 277.718 86.1023C277.718 86.8314 277.834 87.5085 278.066 88.1335C278.298 88.7585 278.656 89.2628 279.139 89.6463C279.622 90.0298 280.237 90.2216 280.985 90.2216ZM288.487 91.5V80.5909H290.107V82.2386H290.22C290.419 81.6989 290.779 81.2609 291.3 80.9247C291.821 80.5885 292.408 80.4205 293.061 80.4205C293.184 80.4205 293.338 80.4228 293.523 80.4276C293.707 80.4323 293.847 80.4394 293.942 80.4489V82.1534C293.885 82.1392 293.755 82.1179 293.551 82.0895C293.352 82.0563 293.142 82.0398 292.919 82.0398C292.389 82.0398 291.915 82.151 291.499 82.3736C291.087 82.5914 290.76 82.8944 290.518 83.2827C290.282 83.6662 290.163 84.1042 290.163 84.5966V91.5H288.487ZM295.929 91.5V80.5909H297.548V82.2955H297.69C297.917 81.7131 298.284 81.2609 298.791 80.9389C299.297 80.6122 299.906 80.4489 300.616 80.4489C301.336 80.4489 301.935 80.6122 302.413 80.9389C302.896 81.2609 303.272 81.7131 303.542 82.2955H303.656C303.935 81.732 304.354 81.2846 304.913 80.9531C305.472 80.617 306.142 80.4489 306.923 80.4489C307.898 80.4489 308.696 80.7543 309.316 81.3651C309.937 81.9711 310.247 82.9157 310.247 84.1989V91.5H308.571V84.1989C308.571 83.3939 308.35 82.8187 307.91 82.473C307.47 82.1274 306.951 81.9545 306.355 81.9545C305.588 81.9545 304.993 82.1866 304.572 82.6506C304.151 83.1098 303.94 83.6922 303.94 84.3977V91.5H302.235V84.0284C302.235 83.4081 302.034 82.9086 301.632 82.5298C301.229 82.1463 300.711 81.9545 300.076 81.9545C299.641 81.9545 299.234 82.0705 298.855 82.3026C298.481 82.5346 298.178 82.8565 297.946 83.2685C297.718 83.6757 297.605 84.1468 297.605 84.6818V91.5H295.929Z" fill="white" fill-opacity="0.78"/>
</svg>